<svg width="1024" height="1024" viewBox="0 0 1024 1024" fill="none" xmlns="http://www.w3.org/2000/svg">
<g clip-path="url(#clip0_3918_1289)">
<rect width="1024" height="1024" rx="200" fill="#ACDEFF"/>
<path d="M564.243 16.9197C541.103 83.7863 589.853 153.172 660.098 154.851C657.343 218.623 699.025 278.034 763.301 295.256C839.475 315.667 917.844 268.892 935.292 191.269C935.333 191.28 935.373 191.293 935.414 191.305C1001.98 209.142 1070.39 169.692 1088.21 103.191C1105.61 38.2551 1068.33 -28.4543 1004.59 -48.1643L1004.62 -48.2631L617.408 -152.015C570.072 -164.699 521.426 -136.646 508.755 -89.3576C496.749 -44.5526 521.361 1.42527 564.243 16.9197Z" fill="url(#paint0_linear_3918_1289)" fill-opacity="0.25"/>
<path d="M330.763 270.003C326.195 191.864 247.056 141.5 174.523 169.438C150.418 103.07 82.7166 59.9204 9.72508 69.4459C-76.7785 80.7347 -137.162 161.646 -122.232 248.38C-122.279 248.386 -122.325 248.389 -122.372 248.395C-197.968 258.261 -251.261 327.477 -241.405 402.996C-231.782 476.737 -165.503 529.209 -92.0057 522.451L-91.9911 522.563L347.722 465.18C401.478 458.165 439.374 408.945 432.366 355.244C425.726 304.363 381.151 267.742 330.763 270.003Z" fill="url(#paint1_linear_3918_1289)" fill-opacity="0.25"/>
<path d="M1049.02 800.159C1021.52 726.166 930.321 700.996 868.641 749.374C825.782 692.506 747.748 670.911 680.184 701.671C600.112 738.125 565.805 833.99 605.838 913.208C605.795 913.228 605.751 913.244 605.708 913.264C535.732 945.122 504.805 1027.61 536.63 1097.52C567.706 1165.78 647.124 1196.78 715.994 1168.54L716.041 1168.64L1123.06 983.341C1172.82 960.687 1194.81 902.026 1172.18 852.318C1150.74 805.22 1096.93 783.085 1049.02 800.159Z" fill="url(#paint2_linear_3918_1289)" fill-opacity="0.25"/>
<path d="M741.996 342.785C743.986 343.191 745.913 344.072 747.555 345.439L747.881 345.72L749.102 346.829C774.555 370.361 787.561 408.318 781.618 447.799L781.562 448.142C780.29 455.293 773.327 459.557 766.571 458.18L645.929 433.586C641.016 432.584 636.819 428.689 635.997 423.323L635.929 422.8C633.414 399.954 641.736 377.071 655.993 360.673C670.261 344.261 691.079 333.728 713.744 337.037L713.922 337.062L741.996 342.785Z" fill="#1A548C" stroke="#1A548C" stroke-width="12.8453"/>
<path d="M689.881 332.162C696.819 333.576 699.917 339.735 700.48 344.63C701.026 349.375 699.575 355.461 694.567 359.034L694.071 359.371C674.158 372.318 658.145 393.841 650.931 420.494L650.594 421.768C648.905 428.298 642.389 432.865 635.354 431.431L599.31 424.083C592.447 422.684 587.667 415.845 589.527 408.641L590.016 406.807C600.533 368.432 627.717 339.027 660.53 327.914L660.939 327.783C662.986 327.168 665.104 327.111 667.094 327.517L689.881 332.162Z" fill="#1A548C" stroke="#1A548C" stroke-width="12.8453"/>
<path d="M736.627 378.807C751.433 379.228 767.803 381.846 783.086 386.299L783.085 386.3C795.448 389.898 802.905 402.401 800.344 414.969L794.5 443.633C793.475 448.661 789.563 452.58 784.573 453.635L784.087 453.728L681.537 471.322C678.567 471.832 675.518 471.28 672.922 469.775L672.409 469.461L634.643 445.14C633.419 444.352 632.275 443.324 631.336 442.048L631.151 441.79C620.187 426.04 617.012 405.107 621.065 388.801C623.104 380.598 627.125 372.988 633.568 367.968C640.216 362.79 648.766 360.907 658.479 363.141L658.981 363.268C659.312 363.36 659.636 363.464 659.948 363.579L660.408 363.757L661.581 364.247C673.265 369.194 683.589 375.417 690.121 382.687L690.762 383.418L690.766 383.422L690.943 383.62C692.807 385.62 695.862 386.19 698.324 384.963L698.328 384.961L699.258 384.514C708.995 379.985 722.472 378.404 736.627 378.807Z" fill="#1A548C" stroke="#1A548C" stroke-width="12.8453"/>
<path d="M612.247 351.472C619.092 352.289 625.976 353.498 632.692 355.042L633.077 355.139C637.023 356.195 639.487 359.194 640.912 361.709C642.443 364.41 643.386 367.578 643.925 370.572C644.473 373.615 644.667 376.819 644.499 379.774C644.348 382.435 643.879 385.361 642.782 387.868L642.554 388.363C638.769 396.202 637.087 406.916 638.241 418.012L638.287 418.572C638.654 424.324 635.391 429.22 631.651 431.981C627.908 434.744 621.907 436.569 616.381 433.361L615.847 433.035L584.933 413.129C580.479 410.261 578.243 404.953 579.301 399.763L585.144 371.098C587.706 358.532 599.462 349.945 612.247 351.473L612.247 351.472Z" fill="#1A548C" stroke="#1A548C" stroke-width="12.8453"/>
<path d="M662.554 423.81C666.473 423.409 670.736 424.512 674.026 427.256L674.582 427.709C677.402 429.956 680.816 431.903 684.658 432.686C689.25 433.622 693.096 433.273 696.105 432.506L696.486 432.413C700.446 431.509 704.71 432.145 708.19 433.821C711.773 435.545 715.525 438.913 716.4 444.107L722.457 480.089L722.539 480.662C722.866 483.338 722.344 486.05 721.045 488.412L720.755 488.912L694.153 532.505C694.152 532.508 694.149 532.512 694.139 532.529L694.093 532.604C693.315 533.882 682.865 550.35 661.558 546.007C651.081 543.871 644.791 538.363 641.207 532.795C638.183 528.095 637.231 523.6 636.935 521.557L636.845 520.838C636.84 520.797 636.836 520.754 636.833 520.725C636.829 520.692 636.827 520.667 636.824 520.645L636.817 520.583L630.681 474.224C630.32 471.499 630.843 468.73 632.173 466.324L651.913 430.605L652.143 430.206C654.577 426.142 658.715 424.202 662.554 423.81Z" fill="#1A548C" stroke="#1A548C" stroke-width="12.8453"/>
<path d="M633.974 401.983C637.551 401.109 641.099 402.002 643.798 403.828L662.746 416.651L663.143 416.93C667.174 419.885 669.137 424.928 668.133 429.855L651.427 511.806C649.626 520.643 639.549 524.88 631.997 520.112L631.64 519.878L612.246 506.75C611.353 506.145 610.498 505.405 609.741 504.519L609.422 504.13C596.381 487.524 592.967 464.847 597.19 445.239C601.401 425.686 613.639 407.595 633.628 402.074L633.974 401.983Z" fill="#1A548C" stroke="#1A548C" stroke-width="12.8453"/>
<path d="M568.223 376.787C570.279 366.7 581.941 361.95 590.461 367.724L590.46 367.725L633.038 396.545L633.407 396.804C637.151 399.528 638.75 403.699 638.791 407.547C638.831 411.338 637.399 415.256 634.561 418.177L634.283 418.457C621.017 431.39 613.899 456.554 616.641 480.258L616.694 480.818C617.127 486.577 613.884 491.428 610.092 494.107C606.282 496.8 600.331 498.326 594.977 495.044L594.46 494.712L561.133 472.152L561.13 472.15C554.564 467.702 551.311 459.747 552.897 451.969L568.223 376.787Z" fill="#1A548C" stroke="#1A548C" stroke-width="12.8453"/>
<path d="M797.248 409.695C807.153 408.086 815.707 416.9 813.684 426.828L798.357 502.011C796.822 509.54 791.044 515.456 783.609 517.201L782.883 517.357L699.317 533.672C690.326 535.428 682.44 527.476 684.269 518.5L700.976 436.547C702.012 431.462 706.007 427.501 711.1 426.506L796.776 409.779L796.777 409.779L797.248 409.695Z" fill="#1A548C" stroke="#1A548C" stroke-width="12.8453"/>
<path d="M574.054 396.95L574.719 397.094C588.611 400.295 597.491 414.011 594.627 428.06C591.718 442.332 577.79 451.543 563.518 448.634L552.431 446.374C538.159 443.464 528.948 429.536 531.857 415.264C534.766 400.992 548.695 391.78 562.968 394.69L574.054 396.95Z" fill="#1A548C" stroke="#1A548C" stroke-width="12.8453"/>
<path d="M811.509 445.358L812.174 445.502C826.066 448.703 834.947 462.419 832.083 476.468C829.173 490.74 815.245 499.951 800.973 497.042L789.887 494.782C775.615 491.872 766.403 477.944 769.312 463.672C772.222 449.4 786.151 440.188 800.423 443.098L811.509 445.358Z" fill="#1A548C" stroke="#1A548C" stroke-width="12.8453"/>
<path d="M618.19 251.438C616.587 242.246 625.795 234.455 634.683 238.874L635.106 239.094L635.801 239.476C642.939 243.481 649.468 249.29 653.384 257.087L653.385 257.087C653.39 257.097 653.395 257.107 653.4 257.117C653.406 257.13 653.413 257.143 653.42 257.156L653.419 257.156C657.049 264.257 657.808 272.9 655.652 280.546L655.642 280.58L655.632 280.615C655.275 281.829 654.547 284.162 653.482 286.4C652.953 287.513 652.241 288.815 651.313 290.001C650.488 291.056 649.056 292.58 646.898 293.409C644.902 294.232 642.688 294.437 640.495 293.757C638.416 293.112 636.951 291.856 636.02 290.873C635.087 289.889 634.349 288.809 633.834 288.023C633.166 287.004 632.961 286.635 632.492 285.948L632.492 285.947C625.536 275.97 620.659 264.535 618.401 252.597L618.19 251.438Z" fill="#1A548C" stroke="#1A548C" stroke-width="12.8453"/>
<path d="M814.041 281.761C823.939 280.859 829.478 291.395 824.884 299.24L824.654 299.617C818.368 309.521 809.975 318.084 800.095 324.546L799.655 324.847C799.251 325.131 798.905 325.391 798.181 325.895C797.445 326.407 796.393 327.11 795.195 327.659C793.999 328.207 792.204 328.817 790.067 328.641C787.808 328.455 785.859 327.451 784.343 325.968C782.682 324.416 781.943 322.506 781.583 321.261C781.177 319.856 781.01 318.43 780.938 317.248C780.828 315.466 780.906 313.708 781.002 312.433L781.096 311.336L781.099 311.301L781.104 311.265C781.924 303.684 785.696 296.261 791.477 291.236L791.476 291.236C791.487 291.227 791.498 291.217 791.509 291.208C791.517 291.2 791.526 291.193 791.534 291.185L791.535 291.186C797.844 285.624 805.773 282.804 813.56 281.815L814.041 281.761Z" fill="#1A548C" stroke="#1A548C" stroke-width="12.8453"/>
<path d="M812.483 287.548C812.317 288.256 812.176 288.992 812.007 289.883C811.847 290.729 811.658 291.729 811.422 292.741C809.637 300.394 806.959 307.728 803.434 314.432L803.435 314.434C791.935 336.507 771.934 352.486 748.716 359.415L748.646 359.435L748.576 359.454C744.602 360.542 740.488 361.532 736.07 362.151L736.071 362.152C725.061 363.831 713.448 363.393 702.06 360.737C691.763 358.335 682.283 354.34 673.765 348.93L673.722 348.903L673.677 348.874C671.171 347.224 668.611 345.48 666.075 343.383C659.661 338.327 654.061 332.492 649.286 325.891L648.856 325.314C646.723 322.422 644.828 319.344 643.226 316.368L643.226 316.367C634.664 301.076 630.394 283.211 631.9 264.874C632.004 262.959 632.261 261.131 632.473 259.611L632.474 259.61C632.841 256.604 633.483 253.866 634.097 251.231C642.237 216.332 671.404 188.73 706.436 182.255L706.458 182.251L706.481 182.248L708.238 181.948C710.02 181.656 711.855 181.391 713.606 181.191L713.626 181.189L713.646 181.186C720.346 180.463 727.027 180.55 733.959 181.509C736.688 181.819 739.379 182.284 742.17 182.935L743.46 183.236C761.96 187.551 777.909 197.287 789.839 210.321L789.839 210.321C793.641 214.437 796.907 218.831 799.793 223.374L800.366 224.286L800.376 224.301L800.385 224.315C811.588 242.545 816.315 264.788 812.562 287.152L812.528 287.351L812.483 287.548Z" fill="#1A548C" stroke="#1A548C" stroke-width="12.8453"/>
<path d="M695.907 265.254C704.092 267.164 709.206 275.391 707.297 283.575C705.388 291.76 697.162 296.874 688.977 294.966C680.792 293.057 675.677 284.83 677.586 276.645C679.495 268.461 687.722 263.345 695.907 265.254Z" fill="#1A548C" stroke="#1A548C" stroke-width="12.8453"/>
<path d="M690.41 273.895L690.68 273.973C693.346 274.896 692.189 279.446 689.274 278.766L688.991 278.685C686.195 277.732 687.357 273.183 690.41 273.895ZM690.41 273.895L690.733 272.511M690.41 273.895L690.733 272.511M690.733 272.511C689.614 272.25 688.283 272.502 687.242 273.297C686.359 273.973 685.984 274.797 685.844 275.398C685.704 275.999 685.675 276.904 686.169 277.9C686.75 279.074 687.832 279.889 688.951 280.15C689.927 280.377 691.188 280.201 692.242 279.433C693.155 278.768 693.576 277.912 693.733 277.238C693.89 276.564 693.891 275.611 693.367 274.611C692.799 273.527 691.838 272.83 690.916 272.56L690.733 272.511ZM692.354 267.767C694.747 268.465 696.63 270.079 697.68 272.2C698.713 274.286 698.777 276.497 698.353 278.316C697.929 280.134 696.893 282.089 695.044 283.502C693.039 285.035 690.438 285.633 687.815 285.021C685.264 284.426 683.17 282.825 681.99 280.573C680.89 278.475 680.782 276.212 681.223 274.32C681.664 272.428 682.763 270.447 684.677 269.052C686.732 267.554 689.318 267.045 691.869 267.64L692.354 267.767Z" fill="#1A548C" stroke="#1A548C" stroke-width="12.8453"/>
<path d="M694.097 283.369L694.188 283.394C695.077 283.691 694.734 285.026 693.764 284.8L693.687 284.778C692.926 284.512 693.266 283.175 694.097 283.369ZM694.097 283.369L695.222 278.546M694.097 283.369L695.222 278.546M695.222 278.546C693.879 278.232 692.239 278.41 690.801 279.374C689.471 280.266 688.716 281.562 688.427 282.801C688.138 284.04 688.242 285.537 689.04 286.926C689.903 288.426 691.295 289.311 692.638 289.624C694.365 290.027 696.174 289.599 697.535 288.527C698.732 287.585 699.311 286.38 699.542 285.393C699.772 284.406 699.785 283.07 699.128 281.696C698.428 280.23 697.125 279.097 695.543 278.629L695.222 278.546ZM695.9 277.204C697.613 277.691 699.191 278.81 700.176 280.523C701.162 282.238 701.309 284.122 700.937 285.719C700.564 287.315 699.599 288.94 697.956 290.042C696.205 291.216 694.149 291.485 692.305 291.055C690.149 290.552 688.436 289.113 687.538 287.232C686.729 285.539 686.718 283.82 687.032 282.475C687.345 281.13 688.116 279.594 689.59 278.434C691.228 277.144 693.4 276.612 695.556 277.114L695.9 277.204Z" fill="#1A548C" stroke="#1A548C" stroke-width="12.8453"/>
<path d="M745.3 276.779L745.391 276.803C753.419 278.926 758.531 286.796 756.599 295.079C754.689 303.263 746.463 308.378 738.279 306.469C730.094 304.56 724.979 296.333 726.887 288.149C728.796 279.964 737.024 274.849 745.209 276.758L745.3 276.779Z" fill="#1A548C" stroke="#1A548C" stroke-width="12.8453"/>
<path d="M739.858 285.424L740.128 285.502C742.794 286.425 741.637 290.975 738.722 290.295L738.439 290.214C735.643 289.261 736.805 284.712 739.858 285.424ZM739.858 285.424L740.181 284.04M739.858 285.424L740.181 284.04M740.181 284.04C739.062 283.779 737.731 284.031 736.691 284.827C735.807 285.502 735.432 286.327 735.292 286.927C735.152 287.528 735.124 288.433 735.617 289.43C736.198 290.603 737.28 291.418 738.399 291.679C739.375 291.907 740.636 291.731 741.69 290.963C742.603 290.297 743.024 289.442 743.181 288.767C743.338 288.093 743.339 287.141 742.815 286.14C742.247 285.057 741.286 284.36 740.364 284.089L740.181 284.04ZM741.802 279.296C744.195 279.994 746.078 281.609 747.129 283.73C748.161 285.815 748.225 288.026 747.801 289.845C747.377 291.664 746.341 293.618 744.493 295.032C742.487 296.565 739.887 297.162 737.263 296.55C734.712 295.955 732.618 294.355 731.438 292.102C730.338 290.004 730.23 287.742 730.671 285.849C731.112 283.957 732.211 281.976 734.125 280.581C736.18 279.083 738.766 278.574 741.317 279.169L741.802 279.296Z" fill="#1A548C" stroke="#1A548C" stroke-width="12.8453"/>
<path d="M743.548 294.903L743.625 294.925C744.385 295.191 744.046 296.527 743.214 296.333L743.137 296.311C742.377 296.045 742.716 294.709 743.548 294.903ZM743.548 294.903L744.673 290.079M743.548 294.903L744.673 290.079M744.673 290.079C742.947 289.677 741.137 290.105 739.776 291.176C738.58 292.118 738 293.322 737.77 294.309C737.54 295.297 737.526 296.633 738.183 298.008C738.93 299.571 740.363 300.755 742.089 301.158C743.815 301.56 745.625 301.132 746.986 300.061C748.183 299.119 748.762 297.914 748.992 296.927C749.222 295.94 749.235 294.604 748.579 293.229C747.879 291.764 746.576 290.632 744.993 290.164L744.673 290.079ZM745.405 288.753C747.373 289.332 748.931 290.707 749.774 292.471C750.582 294.164 750.594 295.882 750.28 297.227C749.966 298.572 749.196 300.109 747.722 301.269C746.083 302.559 743.911 303.091 741.755 302.588C739.6 302.085 737.887 300.647 736.988 298.766C736.18 297.073 736.169 295.354 736.482 294.009C736.796 292.664 737.566 291.128 739.04 289.968C740.679 288.678 742.851 288.145 745.007 288.648L745.405 288.753Z" fill="#1A548C" stroke="#1A548C" stroke-width="12.8453"/>
<path d="M669.816 277.307C672.041 277.826 674.375 278.839 676.369 280.768C677.295 281.603 677.967 282.531 678.079 282.674L678.272 282.925C678.47 283.186 678.749 283.573 679.021 284.036L679.182 284.323L679.389 284.721C680.251 286.447 680.641 288.128 680.829 289.622L680.902 290.298L680.94 290.696L680.927 291.095C680.901 291.92 680.765 292.943 680.76 292.991L680.726 293.335C680.68 293.743 680.586 294.423 680.384 295.158L680.249 295.603C679.845 296.818 679.291 297.895 678.655 298.837L678.378 299.231L677.794 300.032C676.891 301.239 675.787 302.235 674.645 303.013L674.153 303.332C673.307 303.858 672.057 304.564 670.448 304.974L670.122 305.052C669.759 305.133 669.406 305.2 669.07 305.259L668.123 305.409C666.211 305.687 664.556 305.444 663.321 305.156C661.098 304.637 658.766 303.625 656.773 301.699C656.099 301.092 655.558 300.436 655.271 300.066L655.059 299.789C654.891 299.574 654.499 299.075 654.118 298.426L653.956 298.14C652.804 296.01 652.399 293.928 652.235 292.165L652.198 291.767L652.21 291.367C652.223 290.955 652.264 290.493 652.302 290.128L652.378 289.472C652.403 289.225 652.492 288.055 652.89 286.86L653.071 286.348C653.516 285.172 654.101 284.134 654.76 283.231L655.344 282.431L655.541 282.175C656.538 280.915 657.753 279.896 658.984 279.131L659.344 278.912C660.234 278.384 661.47 277.755 663.016 277.411L663.552 277.299C664.079 277.196 664.576 277.117 665.014 277.054L665.37 277.007C667.132 276.806 668.658 277.037 669.816 277.307Z" fill="#1A548C" stroke="#1A548C" stroke-width="12.8453"/>
<path d="M757.404 297.735C759.63 298.254 761.964 299.267 763.958 301.196C764.884 302.03 765.555 302.958 765.667 303.102L765.86 303.352C766.058 303.614 766.337 304 766.609 304.463L766.771 304.751L766.977 305.149C767.839 306.874 768.229 308.556 768.418 310.05L768.491 310.725L768.528 311.123L768.515 311.522C768.502 311.932 768.518 313.354 768.169 314.852C767.785 316.497 767.126 317.929 766.32 319.149L765.966 319.659L765.382 320.459C764.479 321.666 763.375 322.663 762.233 323.44L761.741 323.76C760.895 324.286 759.645 324.991 758.036 325.401L757.71 325.48C757.347 325.56 756.994 325.628 756.658 325.687L755.711 325.837C753.799 326.115 752.145 325.871 750.909 325.583C748.686 325.064 746.354 324.052 744.361 322.126C743.687 321.519 743.146 320.864 742.859 320.493L742.647 320.217C742.48 320.002 742.087 319.503 741.706 318.854L741.544 318.567C740.536 316.704 740.1 314.877 739.897 313.269L739.823 312.593L739.786 312.195L739.799 311.795C739.812 311.382 739.852 310.92 739.89 310.555L739.966 309.899C739.991 309.652 740.08 308.483 740.478 307.287L740.659 306.775C741.105 305.599 741.689 304.562 742.348 303.658L742.932 302.859L743.129 302.603C744.126 301.342 745.341 300.324 746.572 299.558L746.932 299.339C747.822 298.812 749.058 298.182 750.605 297.838L751.14 297.727C751.667 297.623 752.164 297.545 752.602 297.481L752.958 297.435C754.72 297.234 756.246 297.465 757.404 297.735Z" fill="#1A548C" stroke="#1A548C" stroke-width="12.8453"/>
<path d="M702.474 287.835C704.89 287.57 707.243 288.425 708.973 290.139L708.972 290.14C712.727 293.847 718.499 295.236 723.319 293.632L723.319 293.633C725.414 292.935 727.793 293.039 729.887 294.239C731.863 295.372 733.058 297.178 733.577 298.953C734.656 302.644 733.054 307.18 728.616 308.934L728.481 308.987L728.344 309.034C717.651 312.711 705.487 309.884 697.51 301.872L697.509 301.873C697.503 301.867 697.498 301.86 697.492 301.854C697.485 301.847 697.477 301.84 697.469 301.833L697.471 301.832C695.776 300.131 694.959 297.879 695.1 295.614C695.232 293.5 696.163 291.713 697.337 290.449C698.504 289.192 700.264 288.078 702.474 287.835ZM727.375 305.82C727.363 305.823 727.352 305.826 727.34 305.83C727.354 305.825 727.369 305.822 727.383 305.818L727.375 305.82Z" fill="#1A548C" stroke="#1A548C" stroke-width="12.8453"/>
<path d="M394.161 312.199C390.663 313.202 260.413 366.007 246.181 375.753C232.16 385.516 237.354 395.518 239.166 405.04C241.191 414.578 276.774 415.896 292.058 411.775C307.554 407.67 277.165 381.184 291.526 372.514C306.083 364.072 396.415 321.543 398.264 319.771C400.131 317.786 397.006 311.358 394.161 312.199Z" fill="#1A548C"/>
<path d="M392.699 320.369C392.699 320.369 263.744 374.87 253.173 381.695C242.603 388.52 235.003 403.666 250.44 413.609C264.034 422.556 309.407 410.18 355.115 393.576C400.61 376.955 449.86 350.629 449.798 348.71C449.753 346.578 421.526 352.647 404.069 341.268C390.866 332.778 392.699 320.369 392.699 320.369Z" fill="#1A548C"/>
<path opacity="0.5" d="M246.029 410.058C247.666 408.269 249.499 406.709 252.164 405.427C301.681 381.842 352.271 360.899 403.039 340.397C391.112 331.782 392.865 320.41 392.865 320.41C392.865 320.41 263.755 375.01 253.172 381.848C243.946 387.727 236.962 400.39 246.029 410.058Z" fill="#1A548C"/>
<path opacity="0.82" d="M324.671 388.349C337.915 383.001 350.963 377.424 364.207 372.076C367.968 370.454 365.217 364.695 361.457 366.317C348.213 371.665 335.164 377.242 321.92 382.59C317.947 384.195 320.91 389.971 324.671 388.349Z" fill="#1A548C"/>
<path opacity="0.82" d="M375.48 367.419C379.012 365.992 382.561 364.354 385.881 362.911C389.642 361.289 386.891 355.53 383.13 357.151C379.598 358.577 376.049 360.216 372.729 361.659C368.968 363.28 371.506 369.023 375.48 367.419Z" fill="#1A548C"/>
<path d="M291.885 408.491C290.764 409.693 333.388 616.027 334.699 617.635C336.213 619.26 487.355 564.114 489.901 557.865C492.109 552.3 461.945 397.672 452.913 354.22C451.338 346.64 446.694 344.011 439.473 346.804C403.904 360.562 293.771 406.471 291.885 408.491Z" fill="#1A548C"/>
<path opacity="0.28" d="M420.994 498.17C367.38 498.185 320.276 546.115 332.471 598.324C335.206 610.034 337.02 617.339 337.335 617.633C338.917 619.25 495.981 565.153 498.606 558.966C511.134 524.184 459.825 498.049 422.856 498.167C422.235 498.169 421.615 498.17 420.994 498.17Z" fill="#1A548C"/>
<path opacity="0.77" d="M454.713 386.899C454.019 382.154 452.884 377.588 451.519 373.217C449.831 367.541 440.318 368.922 442.186 375.038C443.534 379.621 444.669 384.187 445.38 388.72C446.398 394.769 455.715 393.16 454.713 386.899Z" fill="#1A548C"/>
<path opacity="0.77" d="M451.928 408.632C455.038 423.372 458.148 438.111 461.258 452.851C462.488 458.916 472.033 457.112 470.59 451.03C467.481 436.29 464.371 421.551 461.261 406.811C460.03 400.746 450.698 402.567 451.928 408.632Z" fill="#1A548C"/>
<rect x="253.49" y="487.076" width="39.4439" height="100.347" transform="rotate(13.3238 253.49 487.076)" fill="#1A548C"/>
<path d="M237.976 384.912C233.546 395.006 240.888 418.393 251.588 472.311C262.288 526.23 278.27 613.39 280.014 615.659C281.758 617.928 291.238 625.071 305.55 625.136C319.862 625.2 335.739 618.994 337.342 617.628C338.963 616.051 293.889 410.216 291.977 410.065C290.049 410.126 273.737 413.74 259.127 406.618C239.945 397.856 237.976 384.912 237.976 384.912Z" fill="#1A548C"/>
<g opacity="0.55">
<path d="M300.071 583.567C302.099 582.235 300.651 578.923 299.572 579.051C298.51 578.967 289.568 581.245 284.37 582.113C280.48 582.659 275.953 583.154 273.125 583.783L274.193 589.197C280.224 588.607 293.985 587.563 300.071 583.567Z" fill="#1A548C"/>
<path d="M291.06 559.623C294.982 550.554 281.357 487.666 275.334 466.515C272.169 455.182 252.75 460.256 249.497 460.851C250.275 464.536 251.052 468.221 251.796 472.33C257.446 500.911 264.712 538.785 270.49 568.443C273.105 567.797 287.68 567.243 291.06 559.623Z" fill="#1A548C"/>
</g>
<path opacity="0.32" d="M251.633 471.675C251.616 471.887 251.812 472.115 251.795 472.327C262.496 526.246 278.477 613.406 280.221 615.675C281.965 617.944 291.445 625.087 305.757 625.152C320.07 625.216 335.946 619.01 337.549 617.645C338.466 616.864 323.532 546.199 310.422 487.615C290.236 483.463 270.77 478.302 251.633 471.675Z" fill="#1A548C"/>
<path d="M368.646 437.858C366.863 438.783 362.777 439.1 363.923 438.125C364.84 437.345 366.052 435.522 366.561 434.496C364.229 431.541 361.373 429.823 358.724 430.893C352.347 433.16 358.689 458.389 367.732 454.84C373.014 452.912 371.984 444.304 368.646 437.858Z" fill="#1A548C"/>
<path d="M421.427 421.57C419.644 422.495 415.558 422.812 416.704 421.836C417.62 421.056 418.833 419.233 419.341 418.208C417.01 415.252 414.154 413.535 411.504 414.604C405.128 416.872 411.258 442.084 420.513 438.551C425.811 436.412 424.781 427.804 421.427 421.57Z" fill="#1A548C"/>
<path d="M383.956 460.389C382.581 461.559 390.693 475.203 403.514 469.821C415.664 464.812 412.325 450.265 410.576 450.767C408.81 451.48 409.997 463.511 402.278 466.526C393.431 470.303 385.101 459.413 383.956 460.389Z" fill="#1A548C"/>
<path d="M336.505 468.575C337.993 476.793 362.45 470.198 359.867 462.32C357.233 455.077 335.291 462.297 336.505 468.575Z" fill="#1A548C"/>
<path d="M430.077 441.863C431.566 450.081 456.023 443.486 453.439 435.607C451.018 428.382 429.076 435.602 430.077 441.863Z" fill="#1A548C"/>
<path d="M386.719 329.741C383.752 330.607 273.348 375.968 261.3 384.301C249.433 392.648 253.883 401.122 255.46 409.2C257.217 417.293 287.441 418.271 300.404 414.71C313.548 411.162 287.635 388.791 299.797 381.37C312.125 374.143 388.67 337.667 390.234 336.155C391.811 334.462 389.132 329.016 386.719 329.741Z" fill="#0E3C68"/>
<path d="M385.665 336.541C385.665 336.541 276.237 383.423 267.276 389.271C258.315 395.12 251.913 408.035 265.077 416.431C276.671 423.987 315.2 413.278 353.998 398.969C392.614 384.647 434.385 362.055 434.325 360.422C434.278 358.609 410.302 363.885 395.414 354.275C384.155 347.105 385.665 336.541 385.665 336.541Z" fill="#EBE0C8"/>
<path opacity="0.5" d="M261.305 413.438C262.688 411.912 264.238 410.58 266.497 409.481C308.455 389.254 351.335 371.268 394.368 353.655C384.205 346.386 385.648 336.722 385.648 336.722C385.648 336.722 276.22 383.603 267.259 389.452C259.447 394.481 253.567 405.263 261.305 413.438Z" fill="#EBE0C8"/>
<path opacity="0.82" d="M328.007 394.69C339.233 390.095 350.292 385.307 361.518 380.712C364.706 379.32 362.347 374.44 359.16 375.832C347.933 380.427 336.874 385.215 325.648 389.81C322.28 391.188 324.819 396.081 328.007 394.69Z" fill="#F5F0E3"/>
<path opacity="0.82" d="M371.072 376.717C374.066 375.491 377.074 374.086 379.887 372.847C383.075 371.455 380.716 366.575 377.528 367.967C374.534 369.192 371.527 370.597 368.713 371.836C365.525 373.228 367.704 378.095 371.072 376.717Z" fill="#F5F0E3"/>
<path d="M300.133 413.426C299.151 414.439 338.314 588.164 339.483 589.518C340.833 590.885 474.003 544.319 476.208 539.054C478.427 533.61 440.607 358.899 439.758 358.112C438.936 356.965 302.098 411.401 300.133 413.426Z" fill="#35A3D9"/>
<path opacity="0.28" d="M313.996 478.511C324.988 528.364 338.839 588.564 339.688 589.35C341.038 590.717 474.208 544.152 476.413 538.887C477.101 536.948 473.025 513.665 467.032 484.449C415.846 489.694 363.852 488.728 313.996 478.511Z" fill="#5FC2F2"/>
<path opacity="0.77" d="M438.446 392.942C437.838 388.915 436.856 385.042 435.68 381.335C434.223 376.522 426.15 377.732 427.76 382.918C428.923 386.805 429.905 390.679 430.527 394.525C431.416 399.658 439.322 398.255 438.446 392.942Z" fill="#EBE0C8"/>
<path opacity="0.77" d="M436.163 411.406C438.863 423.911 441.562 436.416 444.262 448.921C445.331 454.067 453.43 452.497 452.18 447.337C449.481 434.832 446.781 422.327 444.082 409.822C443.013 404.676 435.094 406.26 436.163 411.406Z" fill="#EBE0C8"/>
<path d="M254.368 392.113C250.645 400.703 256.973 420.535 266.275 466.282C275.576 512.029 289.494 585.986 290.984 587.906C292.475 589.826 300.553 595.855 312.708 595.853C324.863 595.851 338.321 590.517 339.678 589.351C341.048 588.005 301.951 413.38 300.328 413.26C298.69 413.319 284.852 416.453 272.416 410.463C256.091 403.098 254.368 392.113 254.368 392.113Z" fill="#60BEE6"/>
<g opacity="0.55">
<path d="M307.89 560.575C309.607 559.436 308.364 556.629 307.449 556.742C306.546 556.675 298.961 558.645 294.55 559.403C291.249 559.882 287.406 560.32 285.007 560.866L285.936 565.459C291.055 564.935 302.737 563.992 307.89 560.575Z" fill="#F7E06D"/>
<path d="M300.143 540.274C303.438 532.557 291.617 479.203 286.419 461.265C283.686 451.653 267.214 456.039 264.454 456.558C265.129 459.684 265.804 462.81 266.452 466.296C271.363 490.546 277.685 522.682 282.709 547.845C284.928 547.286 297.303 546.758 300.143 540.274Z" fill="#EBE0C8" fill-opacity="0.5"/>
</g>
<path opacity="0.32" d="M266.313 465.742C266.3 465.922 266.467 466.115 266.453 466.295C275.755 512.042 289.673 585.999 291.163 587.919C292.653 589.839 300.732 595.867 312.887 595.865C325.042 595.863 338.5 590.53 339.856 589.364C340.631 588.698 327.669 528.745 316.302 479.045C299.143 475.599 282.591 471.293 266.313 465.742Z" fill="#47ADE0"/>
<path d="M365.543 436.564C364.032 437.357 360.564 437.642 361.533 436.81C362.308 436.143 363.331 434.59 363.759 433.717C361.767 431.217 359.334 429.769 357.089 430.688C351.682 432.639 357.169 454.04 364.834 450.989C369.312 449.331 368.403 442.025 365.543 436.564Z" fill="#180D36"/>
<path d="M410.315 422.515C408.805 423.308 405.336 423.593 406.305 422.76C407.08 422.094 408.103 420.541 408.531 419.668C406.539 417.168 404.106 415.72 401.861 416.639C396.454 418.59 401.76 439.977 409.606 436.94C414.097 435.102 413.189 427.796 410.315 422.515Z" fill="#180D36"/>
<path d="M378.642 455.63C377.479 456.629 384.423 468.184 395.289 463.562C405.588 459.26 402.694 446.92 401.211 447.352C399.714 447.965 400.77 458.178 394.227 460.768C386.729 464.012 379.611 454.797 378.642 455.63Z" fill="#180D36"/>
<path d="M338.377 462.768C339.673 469.742 360.417 464.043 358.192 457.363C355.926 451.223 337.321 457.442 338.377 462.768Z" fill="#FEFEFE"/>
<path d="M417.736 439.718C419.033 446.691 439.777 440.993 437.552 434.313C435.466 428.186 416.861 434.405 417.736 439.718Z" fill="#FEFEFE"/>
<rect x="609.925" y="492.303" width="42.5623" height="108.281" transform="rotate(16.0732 609.925 492.303)" fill="#1A548C"/>
<path d="M509.84 461.351C520.6 452.36 533.566 448.717 547.496 450.013C561.357 451.07 573.437 456.858 582.431 467.552C591.8 478.452 595.106 491.958 593.891 506.234L593.888 506.263L593.886 506.29L580.989 652.137L616.21 655.15L616.272 655.155L616.335 655.161C617.156 655.238 617.972 655.328 618.783 655.435C616.945 646.247 616.016 637.017 616.016 627.759C616.016 601.918 622.878 578.564 636.948 558.34L637.624 557.379C652.233 536.587 671.998 522.964 696.402 517.19L697.697 516.889C704.172 515.428 710.653 514.67 717.116 514.67C725.097 514.67 732.824 515.746 740.237 517.919C746.715 510.692 755.267 505.727 765.43 503.187L765.918 503.064L766.411 502.972C770.927 502.125 775.401 501.655 779.791 501.655C792.092 501.655 802.924 506.47 811.188 515.568C818.697 523.837 823.408 534.863 826.393 547.037L826.677 548.219L826.685 548.251L826.691 548.284L854.091 667.126L854.111 667.218L854.132 667.311C855.862 675.221 856.919 682.582 856.919 689.064C856.919 699.891 853.987 710.361 846.697 718.865C839.564 727.187 829.747 731.884 819.197 734.249L819.198 734.25C819.174 734.256 819.149 734.261 819.124 734.267C819.104 734.271 819.084 734.276 819.064 734.28L819.063 734.279C814.929 735.223 810.735 735.709 806.505 735.709C800.278 735.709 794.444 734.48 789.089 732.159C778.504 742.054 765.713 748.755 750.96 752.079L750.959 752.078C743.162 753.94 735.298 754.889 727.392 754.889C701.552 754.889 678.437 745.667 658.639 728.01L658.549 727.93L658.46 727.849C657.938 727.37 657.422 726.886 656.91 726.399C654.699 730.848 651.781 734.996 648.138 738.774L648.127 738.785L648.117 738.797C637.315 749.959 623.227 754.395 607.896 753.117L607.854 753.114L607.812 753.11L522.587 745.579V745.58C522.58 745.58 522.574 745.579 522.567 745.578L522.533 745.575V745.574C508.208 744.343 495.537 738.61 486.507 727.375L486.079 726.835C486.02 726.759 485.962 726.683 485.903 726.607C480.302 730.311 473.91 732.749 467.222 734.249L467.223 734.25C467.198 734.256 467.173 734.261 467.148 734.267C467.129 734.271 467.109 734.276 467.089 734.28L467.088 734.279C462.953 735.223 458.76 735.709 454.529 735.709C448.302 735.709 442.468 734.48 437.113 732.159C426.528 742.054 413.736 748.755 398.983 752.079L398.982 752.078C391.186 753.94 383.322 754.889 375.415 754.889C349.575 754.889 326.46 745.667 306.662 728.01L306.572 727.93L306.484 727.849C305.963 727.37 305.447 726.886 304.935 726.399C302.724 730.848 299.806 734.996 296.162 738.774L296.151 738.785L296.141 738.797C285.339 749.959 271.25 754.395 255.919 753.117L255.878 753.114L255.836 753.11L170.611 745.579V745.58C170.609 745.58 170.606 745.579 170.604 745.579L170.557 745.575V745.574C156.231 744.343 143.562 738.61 134.531 727.375L134.103 726.835C125.31 715.58 122.202 702.014 123.397 687.663L123.399 687.639L123.401 687.613L139.841 497.192L139.842 497.182L139.972 495.848C141.436 482.22 147.08 470.161 157.794 461.408C168.557 452.384 181.535 448.722 195.479 450.01C209.34 451.058 221.422 456.833 230.421 467.513C239.816 478.42 243.13 491.941 241.914 506.234L241.912 506.263L241.909 506.29L229.014 652.137L264.234 655.15L264.297 655.155L264.359 655.161C265.18 655.238 265.997 655.328 266.808 655.435C264.969 646.247 264.04 637.017 264.04 627.759C264.04 601.544 271.102 577.889 285.588 557.464L286.277 556.491C300.823 536.199 320.372 522.882 344.427 517.19L345.722 516.889C352.196 515.428 358.677 514.67 365.141 514.67C373.122 514.67 380.848 515.746 388.262 517.919C394.739 510.692 403.291 505.727 413.454 503.187L413.941 503.064L414.436 502.972C418.952 502.125 423.425 501.655 427.815 501.655C440.116 501.655 450.948 506.47 459.211 515.568C466.72 523.837 471.432 534.863 474.417 547.037L474.7 548.219L474.708 548.251L474.716 548.284L483.948 588.331L491.816 497.192L491.817 497.182L491.947 495.848C493.415 482.19 499.081 470.108 509.84 461.351ZM374.73 608.99C370.919 608.99 369.406 610.057 368.004 612.051C365.707 615.412 364.182 619.914 364.182 626.389C364.182 629.724 364.505 633.233 365.189 636.933C366.921 644.174 369.785 649.412 373.378 653.281C376.562 656.711 379.107 657.486 381.58 657.486C385.172 657.486 386.671 656.494 388.179 654.27L388.378 653.975L388.589 653.689L388.955 653.173C390.757 650.505 392.129 646.583 392.129 640.431C392.129 637.571 391.753 634.32 390.875 630.634L390.854 630.55L390.835 630.465C389.089 622.784 386.17 617.393 382.589 613.537L382.489 613.43L382.391 613.32C379.02 609.56 376.607 608.99 374.73 608.99ZM726.706 608.99C722.905 608.99 721.389 610.052 719.99 612.035C717.688 615.398 716.157 619.904 716.157 626.389C716.157 629.727 716.481 633.239 717.167 636.941C718.898 644.179 721.763 649.413 725.354 653.281C728.539 656.711 731.083 657.486 733.556 657.486C737.148 657.486 738.647 656.494 740.154 654.269L740.354 653.975L740.565 653.689L740.931 653.173C742.733 650.505 744.104 646.583 744.104 640.431C744.104 637.571 743.728 634.32 742.851 630.634L742.83 630.55L742.812 630.465C741.066 622.784 738.146 617.393 734.565 613.537L734.465 613.43L734.367 613.32C730.996 609.56 728.583 608.99 726.706 608.99Z" fill="#F33D26" stroke="#1A548C" stroke-width="33.6997"/>
<rect x="240.627" y="536.69" width="42.5623" height="108.281" transform="rotate(16.0732 240.627 536.69)" fill="#1A548C"/>
<ellipse cx="378.112" cy="633.784" rx="30.2567" ry="42.9783" transform="rotate(-13.2595 378.112 633.784)" fill="#F9A83E"/>
<ellipse cx="30.9437" cy="43.6291" rx="30.9437" ry="43.6291" transform="matrix(0.973341 -0.229362 0.229361 0.973342 690.132 599.044)" fill="#FF7179"/>
<path d="M257.319 743.815L172.04 736.28C161.309 735.367 153.089 731.257 147.381 723.951C141.673 716.644 139.276 707.511 140.189 696.552L156.628 506.13C157.542 495.627 161.537 487.522 168.615 481.814C175.693 475.877 184.141 473.366 193.959 474.279C203.777 474.964 211.654 478.846 217.59 485.924C223.527 492.773 226.038 501.564 225.125 512.295L210.741 674.975L262.798 679.428C272.616 680.341 280.151 683.88 285.402 690.045C290.654 695.981 293.28 702.945 293.28 710.936C293.28 720.297 290.197 728.175 284.032 734.568C277.183 741.646 268.278 744.728 257.319 743.815Z" fill="#FEFEFE" fill-opacity="0.32"/>
<path d="M463.434 725.321C460.466 726.006 457.497 726.348 454.529 726.348C446.766 726.348 440.031 723.38 434.323 717.444C424.505 730.915 411.49 739.477 395.279 743.13C388.658 744.728 382.037 745.527 375.415 745.527C353.953 745.527 334.774 737.993 317.878 722.923C301.21 707.626 289.908 687.533 283.972 662.646C281.917 653.513 280.889 644.38 280.889 635.247C280.889 612.187 287.054 591.98 299.384 574.627C311.713 557.047 328.038 545.859 348.359 541.064C354.067 539.694 359.661 539.009 365.141 539.009C375.872 539.009 385.804 541.406 394.937 546.201C399.047 536.155 406.581 529.762 417.541 527.022C421.194 526.337 424.619 525.995 427.815 525.995C442.885 525.995 453.045 537.182 458.297 559.558L485.695 678.4C487.294 685.707 488.093 691.757 488.093 696.552C488.093 712.078 479.873 721.668 463.434 725.321ZM347.331 633.877C347.331 638.444 347.788 643.124 348.701 647.919C350.985 657.737 355.094 665.843 361.031 672.236C366.967 678.629 373.817 681.825 381.58 681.825C390.485 681.825 397.334 678.286 402.129 671.208C406.695 665.043 408.979 657.28 408.979 647.919C408.979 643.581 408.408 639.015 407.266 634.22C404.983 624.174 400.873 615.954 394.937 609.561C389 602.94 382.265 599.629 374.73 599.629C365.826 599.629 358.976 603.054 354.181 609.903C349.615 616.525 347.331 624.516 347.331 633.877Z" fill="#FEFEFE" fill-opacity="0.32"/>
<path d="M609.295 743.815L524.016 736.28C513.285 735.367 505.065 731.257 499.357 723.951C493.649 716.644 491.252 707.511 492.165 696.552L508.604 506.13C509.517 495.627 513.513 487.522 520.591 481.814C527.669 475.877 536.117 473.366 545.935 474.279C555.753 474.964 563.63 478.846 569.566 485.924C575.503 492.773 578.014 501.564 577.101 512.295L562.717 674.975L614.774 679.428C624.592 680.341 632.127 683.88 637.378 690.045C642.63 695.981 645.256 702.945 645.256 710.936C645.256 720.297 642.173 728.175 636.008 734.568C629.159 741.646 620.254 744.728 609.295 743.815Z" fill="#FEFEFE" fill-opacity="0.32"/>
<path d="M815.41 725.321C812.441 726.006 809.473 726.348 806.505 726.348C798.742 726.348 792.007 723.38 786.299 717.444C776.481 730.915 763.466 739.477 747.255 743.13C740.634 744.728 734.013 745.527 727.391 745.527C705.929 745.527 686.75 737.993 669.854 722.923C653.186 707.626 641.884 687.533 635.948 662.646C633.893 653.513 632.865 644.38 632.865 635.247C632.865 612.187 639.03 591.98 651.36 574.627C663.689 557.047 680.014 545.859 700.335 541.064C706.043 539.694 711.637 539.009 717.117 539.009C727.848 539.009 737.78 541.406 746.913 546.201C751.023 536.155 758.557 529.762 769.517 527.022C773.17 526.337 776.595 525.995 779.791 525.995C794.861 525.995 805.021 537.182 810.272 559.558L837.671 678.4C839.269 685.707 840.069 691.757 840.069 696.552C840.069 712.078 831.849 721.668 815.41 725.321ZM699.307 633.877C699.307 638.444 699.764 643.124 700.677 647.919C702.961 657.737 707.07 665.843 713.007 672.236C718.943 678.629 725.793 681.825 733.556 681.825C742.46 681.825 749.31 678.286 754.105 671.208C758.671 665.043 760.955 657.28 760.955 647.919C760.955 643.581 760.384 639.015 759.242 634.22C756.959 624.174 752.849 615.954 746.913 609.561C740.976 602.94 734.241 599.629 726.706 599.629C717.802 599.629 710.952 603.054 706.157 609.903C701.591 616.525 699.307 624.516 699.307 633.877Z" fill="#FEFEFE" fill-opacity="0.32"/>
<g filter="url(#filter0_i_3918_1289)">
<path d="M257.319 736.326L172.04 728.791C161.309 727.878 153.089 723.768 147.381 716.462C141.673 709.155 139.276 700.022 140.189 689.063L156.628 498.641C157.542 488.138 161.537 480.033 168.615 474.325C175.693 468.388 184.141 465.877 193.959 466.79C203.777 467.475 211.654 471.357 217.59 478.435C223.527 485.284 226.038 494.075 225.125 504.806L210.741 667.486L262.798 671.939C272.616 672.852 280.151 676.391 285.402 682.556C290.654 688.492 293.28 695.456 293.28 703.447C293.28 712.808 290.197 720.686 284.032 727.079C277.183 734.157 268.278 737.239 257.319 736.326Z" fill="#FEFEFE"/>
<path d="M463.434 717.832C460.466 718.517 457.497 718.859 454.529 718.859C446.766 718.859 440.031 715.891 434.323 709.955C424.505 723.426 411.49 731.988 395.279 735.641C388.658 737.239 382.037 738.039 375.415 738.039C353.953 738.039 334.774 730.504 317.878 715.434C301.21 700.137 289.908 680.044 283.972 655.157C281.917 646.024 280.889 636.891 280.889 627.758C280.889 604.698 287.054 584.491 299.384 567.139C311.713 549.558 328.038 538.37 348.359 533.575C354.067 532.205 359.661 531.52 365.141 531.52C375.872 531.52 385.804 533.917 394.937 538.712C399.047 528.666 406.581 522.273 417.541 519.533C421.194 518.848 424.619 518.506 427.815 518.506C442.885 518.506 453.045 529.693 458.297 552.069L485.695 670.911C487.294 678.218 488.093 684.268 488.093 689.063C488.093 704.589 479.873 714.179 463.434 717.832ZM347.331 626.388C347.331 630.955 347.788 635.635 348.701 640.43C350.985 650.248 355.094 658.354 361.031 664.747C366.967 671.14 373.817 674.336 381.58 674.336C390.485 674.336 397.334 670.797 402.129 663.719C406.695 657.555 408.979 649.792 408.979 640.43C408.979 636.092 408.408 631.526 407.266 626.731C404.983 616.685 400.873 608.465 394.937 602.072C389 595.451 382.265 592.14 374.73 592.14C365.826 592.14 358.976 595.565 354.181 602.414C349.615 609.036 347.331 617.027 347.331 626.388Z" fill="#FEFEFE"/>
<path d="M609.295 736.326L524.016 728.791C513.285 727.878 505.065 723.768 499.357 716.462C493.649 709.155 491.252 700.022 492.165 689.063L508.604 498.641C509.517 488.138 513.513 480.033 520.591 474.325C527.669 468.388 536.117 465.877 545.935 466.79C555.753 467.475 563.63 471.357 569.566 478.435C575.503 485.284 578.014 494.075 577.101 504.806L562.717 667.486L614.774 671.939C624.592 672.852 632.127 676.391 637.378 682.556C642.63 688.492 645.256 695.456 645.256 703.447C645.256 712.808 642.173 720.686 636.008 727.079C629.159 734.157 620.254 737.239 609.295 736.326Z" fill="#FEFEFE"/>
<path d="M815.41 717.832C812.441 718.517 809.473 718.859 806.505 718.859C798.742 718.859 792.007 715.891 786.299 709.955C776.481 723.426 763.466 731.988 747.255 735.641C740.634 737.239 734.013 738.039 727.391 738.039C705.929 738.039 686.75 730.504 669.854 715.434C653.186 700.137 641.884 680.044 635.948 655.157C633.893 646.024 632.865 636.891 632.865 627.758C632.865 604.698 639.03 584.491 651.36 567.139C663.689 549.558 680.014 538.37 700.335 533.575C706.043 532.205 711.637 531.52 717.117 531.52C727.848 531.52 737.78 533.917 746.913 538.712C751.023 528.666 758.557 522.273 769.517 519.533C773.17 518.848 776.595 518.506 779.791 518.506C794.861 518.506 805.021 529.693 810.272 552.069L837.671 670.911C839.269 678.218 840.069 684.268 840.069 689.063C840.069 704.589 831.849 714.179 815.41 717.832ZM699.307 626.388C699.307 630.955 699.764 635.635 700.677 640.43C702.961 650.248 707.07 658.354 713.007 664.747C718.943 671.14 725.793 674.336 733.556 674.336C742.46 674.336 749.31 670.797 754.105 663.719C758.671 657.555 760.955 649.792 760.955 640.43C760.955 636.092 760.384 631.526 759.242 626.731C756.959 616.685 752.849 608.465 746.913 602.072C740.976 595.451 734.241 592.14 726.706 592.14C717.802 592.14 710.952 595.565 706.157 602.414C701.591 609.036 699.307 617.027 699.307 626.388Z" fill="#FEFEFE"/>
</g>
<path d="M773.793 452.681L643.201 426.059C635.6 383.172 671.567 337.411 712.753 343.424L742.146 349.416C768.684 372.208 782.143 411.763 773.793 452.681Z" fill="#1EC6FA"/>
<path d="M712.757 343.425C679.415 354.01 651.547 385.14 643.205 426.059L594.807 416.193C603.14 375.271 631.008 344.141 664.35 333.556L712.757 343.425Z" fill="#17B4E4"/>
<path d="M793.613 413.385L786.924 446.197L678.101 464.868L637.423 438.672C616.777 410.412 625.058 361.412 657.726 369.421C670.056 374.463 680.189 380.67 685.957 387.414C689.696 391.796 696.034 393.088 701.19 390.52C717.902 382.21 751.477 383.688 780.913 392.265C789.996 394.909 795.504 404.109 793.613 413.385Z" fill="#FFF2F7"/>
<path d="M637.424 438.669L585.27 405.086L591.959 372.273C593.85 362.997 602.52 356.686 611.914 357.81C627.885 359.715 644.133 363.858 657.728 369.418C633.935 371.082 624.908 409.827 637.424 438.669Z" fill="#FFFCFD"/>
<path d="M663.022 538.814C644.517 535.042 643.486 519.147 643.486 519.147L637.074 470.707L662.879 424.018C662.879 424.018 670.67 435.95 683.459 438.557C698.735 441.671 708.089 433.234 708.089 433.234L716.447 482.886L688.696 528.363C688.696 528.363 680.513 542.38 663.022 538.814Z" fill="#0E3C68"/>
<path d="M662.879 424.017L643.486 519.147L615.473 500.185C590.914 470.053 602.206 414.662 638.266 407.361L662.879 424.017Z" fill="#888AFF"/>
<path d="M615.47 500.184L565.381 466.279C560.98 463.297 558.803 457.97 559.865 452.762L575.119 377.936C576.254 372.368 582.696 369.742 587.402 372.931L638.263 407.361C612.968 421.862 602.921 467.764 615.47 500.184Z" fill="#797DFD"/>
<path d="M781.271 510.289L688.7 528.363L708.092 433.234L797.548 415.769C803.128 414.679 808.022 419.615 806.887 425.185L791.633 500.012C790.572 505.217 786.483 509.271 781.271 510.289Z" fill="#797DFD"/>
<path d="M565.453 441.905L554.419 439.656C543.673 437.465 536.738 426.979 538.929 416.234C541.119 405.488 551.606 398.553 562.351 400.744L573.385 402.993C584.13 405.184 591.065 415.67 588.875 426.415C586.684 437.161 576.198 444.096 565.453 441.905Z" fill="#FFECDB"/>
<path d="M801.78 490.081L790.746 487.832C780.001 485.641 773.066 475.155 775.257 464.41C777.447 453.664 787.934 446.729 798.679 448.92L809.713 451.169C820.458 453.36 827.393 463.846 825.203 474.591C823.012 485.337 812.526 492.272 801.78 490.081Z" fill="#FFECDB"/>
<path d="M623.861 241.59C633.81 244.847 643.288 251.151 647.933 260.451C650.811 266.045 651.449 273.009 649.72 279.138C649.062 281.377 647.275 286.873 644.8 287.738C641.622 289.118 640.008 285.436 638.1 282.644C629.671 270.574 624.562 256.209 623.861 241.59Z" fill="#FFECDB"/>
<path d="M823.198 288.215C813.273 287.555 802.683 289.748 795.289 296.297C790.767 300.206 787.733 306.118 787.082 312.133C786.869 314.34 786.493 319.818 788.367 321.459C790.679 323.803 793.408 321.13 796.08 319.346C807.792 311.699 817.25 300.817 823.198 288.215Z" fill="#FFECDB"/>
<path d="M804.675 291.563C803.011 298.696 800.524 305.487 797.282 311.65C786.66 332.038 768.167 346.829 746.663 353.246C742.807 354.302 738.983 355.215 734.941 355.777C724.803 357.323 714.065 356.925 703.508 354.462C693.949 352.233 685.184 348.534 677.323 343.541C674.846 341.91 672.51 340.313 670.242 338.43C664.269 333.727 659.066 328.302 654.633 322.153C652.564 319.414 650.705 316.423 649.13 313.499C641.159 299.304 637.201 282.737 638.602 265.764C638.683 264.128 638.906 262.526 639.13 260.923C639.443 258.289 640.009 255.863 640.641 253.153C648.162 220.91 675.189 195.323 707.574 189.338C709.771 188.948 712.11 188.591 714.274 188.344C720.446 187.678 726.595 187.758 733.006 188.651C735.498 188.932 737.956 189.355 740.524 189.954C740.952 190.054 741.38 190.153 741.808 190.253C758.928 194.246 773.676 203.252 784.704 215.301C788.428 219.329 791.624 223.684 794.469 228.259C804.827 245.116 809.204 265.693 805.73 286.393C805.33 288.105 805.074 289.851 804.675 291.563Z" fill="#FFECDB"/>
<path opacity="0.33" d="M787.218 279.969C770.398 279.205 753.035 275.607 738.25 273.211C720.907 270.821 703.815 264.126 690.984 252.71C675.277 254.913 658.533 254.467 643.996 254.235C642.422 255.824 640.848 257.412 639.383 259.177C655.98 261.544 672.077 261.537 688.654 258.183C715.753 277.441 754.139 286.996 788.716 282.575C788.312 281.728 787.765 280.849 787.218 279.969Z" fill="#FFAB91"/>
<path d="M650.142 254.317C663.186 254.502 677.438 254.667 691.124 252.745C703.922 264.304 720.871 270.965 738.39 273.246C751.43 275.385 766.51 278.451 781.418 279.672C750.124 242.287 690.703 226.171 650.142 254.317Z" fill="#69493D"/>
<path d="M754.537 249.18C746.258 244.691 737.317 241.102 727.968 238.62C711.409 234.156 693.942 232.94 677.902 236.57C665.224 239.329 653.66 245.056 644.14 254.268C646.095 254.273 648.192 254.31 650.146 254.315C690.708 226.169 750.129 242.285 781.28 279.636C783.344 279.816 785.265 279.964 787.22 279.968C779.244 267.728 768.629 257.129 754.537 249.18Z" fill="#56362A"/>
<path d="M772.268 246.697C746.715 219.526 709.327 214.717 676.682 224.402C661.574 228.55 648.526 239.346 640.5 253.118L640.467 253.261C640.001 255.258 639.678 257.289 639.354 259.32C666.971 226.048 718.34 229.606 754.54 249.181C777.81 262.28 791.531 282.779 800.064 305.529C800.682 304.169 801.158 302.775 801.6 301.524C796.838 281.31 787.582 262.303 772.268 246.697Z" fill="#F5F5F5"/>
<path d="M676.677 224.404C709.465 214.753 746.853 219.562 772.264 246.699C787.435 262.272 796.833 281.312 801.595 301.527C802.789 298.345 803.73 294.955 804.529 291.531C804.928 289.819 805.327 288.107 805.551 286.504C809.058 265.661 804.648 245.227 794.289 228.37C791.445 223.795 788.107 219.406 784.525 215.412C773.496 203.363 758.749 194.357 741.629 190.364C741.201 190.264 740.773 190.164 740.345 190.065C737.777 189.466 735.318 189.043 732.826 188.762C726.525 188.045 720.234 187.931 714.095 188.455C711.788 188.669 709.591 189.059 707.394 189.449C674.868 195.401 647.982 221.021 640.495 253.121C648.521 239.348 661.569 228.552 676.677 224.404Z" fill="#F33D26"/>
<path opacity="0.26" d="M739.713 192.775C737.288 192.209 734.829 191.786 732.48 191.539C726.355 190.712 720.349 190.665 714.495 191.255C712.331 191.503 710.167 191.75 707.97 192.14C701.38 193.311 695.05 195.294 688.982 198.091C686.795 199.085 684.608 200.079 682.53 201.249C674.393 205.82 666.99 211.765 660.813 218.898C657.95 222.142 655.483 225.628 653.124 229.29C649.068 235.715 645.878 242.943 643.796 250.581C657.951 226.655 682.83 208.991 709.679 203.52C726.399 200.199 744.826 199.232 762.949 201.504C756.172 197.667 748.877 194.762 740.888 192.898C740.602 192.832 740.174 192.732 739.713 192.775Z" fill="#FAFAFA"/>
<path opacity="0.33" d="M802.95 286.045C804.386 277.956 804.437 269.995 803.533 262.263C788.452 297.255 751.033 315.153 715.263 318.242C692.123 320.066 666.743 317.305 647.23 303.577C648.486 306.578 649.917 309.469 651.491 312.394C653.066 315.318 654.849 317.991 656.918 320.73C661.132 326.526 666.192 331.918 672.056 336.445C674.215 338.152 676.517 339.892 678.885 341.347C686.495 346.131 694.974 349.763 704.247 351.926C714.519 354.322 724.829 354.621 734.649 353.15C738.548 352.555 742.338 351.785 745.91 350.662C766.6 344.507 784.532 330.187 794.844 310.479C798.054 304.458 800.474 297.953 802.104 290.962C802.328 289.36 802.584 287.614 802.95 286.045Z" fill="#EBBC93"/>
<path d="M701.049 282.44C699.951 287.148 695.201 290.101 690.493 289.003C685.785 287.905 682.831 283.155 683.929 278.447C685.028 273.739 689.778 270.785 694.486 271.883C699.194 272.981 702.148 277.732 701.049 282.44Z" fill="#483722"/>
<path d="M690.469 274.259C687.331 273.527 686.201 278.375 689.338 279.107C692.332 279.805 693.463 274.957 690.469 274.259Z" fill="white"/>
<path d="M694.136 283.688C693.282 283.488 692.95 284.912 693.804 285.112C694.801 285.344 695.133 283.92 694.136 283.688Z" fill="white"/>
<path d="M750.125 293.891C749.027 298.599 744.276 301.553 739.568 300.454C734.86 299.356 731.907 294.606 733.005 289.898C734.103 285.19 738.853 282.236 743.561 283.334C748.379 284.609 751.223 289.183 750.125 293.891Z" fill="#483722"/>
<path d="M739.686 285.739C736.548 285.007 735.418 289.855 738.555 290.587C741.549 291.285 742.68 286.437 739.686 285.739Z" fill="white"/>
<path d="M743.357 295.169C742.502 294.97 742.17 296.394 743.025 296.593C743.879 296.792 744.211 295.368 743.357 295.169Z" fill="white"/>
<path d="M674.634 291.168C674.506 289.784 674.201 288.51 673.436 287.278C672.965 286.717 672.636 286.189 672.132 285.771C671.157 284.791 669.94 284.206 668.513 283.874C667.515 283.641 666.483 283.55 665.351 283.888C664.286 283.94 663.439 284.345 662.56 284.892C661.68 285.439 660.91 286.162 660.425 286.951C659.797 287.707 659.279 288.639 659.012 289.781C658.989 290.527 658.856 291.098 658.832 291.845C658.96 293.228 659.265 294.503 660.031 295.734C660.501 296.295 660.83 296.823 661.334 297.242C662.309 298.221 663.526 298.806 664.953 299.139C665.951 299.372 666.983 299.462 668.115 299.124C669.18 299.072 670.027 298.668 670.907 298.121C671.786 297.574 672.557 296.851 673.042 296.061C673.669 295.305 674.187 294.373 674.454 293.232C674.477 292.485 674.611 291.914 674.634 291.168Z" fill="#F9AE88"/>
<path d="M761.809 311.501C761.681 310.117 761.376 308.843 760.61 307.611C760.139 307.05 759.811 306.522 759.307 306.104C758.332 305.124 757.115 304.539 755.688 304.207C754.689 303.974 753.658 303.883 752.526 304.221C751.461 304.274 750.614 304.678 749.734 305.225C748.855 305.772 748.084 306.495 747.599 307.284C746.972 308.04 746.453 308.972 746.187 310.114C746.164 310.86 746.03 311.431 746.007 312.178C746.135 313.561 746.44 314.836 747.205 316.067C747.676 316.628 748.004 317.156 748.509 317.575C749.484 318.554 750.701 319.139 752.128 319.472C753.126 319.705 754.158 319.795 755.29 319.457C756.355 319.405 757.202 319.001 758.081 318.454C758.961 317.907 759.731 317.184 760.216 316.394C760.844 315.638 761.362 314.706 761.628 313.565C761.795 312.851 761.785 312.247 761.809 311.501Z" fill="#F9AE88"/>
<path d="M725.238 299.962C718.062 302.35 709.82 300.277 704.442 294.961C702.853 293.387 700.442 295.984 702.031 297.557C708.242 303.82 717.801 306.049 726.141 303.181C728.296 302.33 727.358 299.253 725.238 299.962Z" fill="#483722"/>
</g>
<defs>
<filter id="filter0_i_3918_1289" x="140" y="463.351" width="700.069" height="274.687" filterUnits="userSpaceOnUse" color-interpolation-filters="sRGB">
<feFlood flood-opacity="0" result="BackgroundImageFix"/>
<feBlend mode="normal" in="SourceGraphic" in2="BackgroundImageFix" result="shape"/>
<feColorMatrix in="SourceAlpha" type="matrix" values="0 0 0 0 0 0 0 0 0 0 0 0 0 0 0 0 0 0 127 0" result="hardAlpha"/>
<feOffset dy="-3.25613"/>
<feGaussianBlur stdDeviation="6.02383"/>
<feComposite in2="hardAlpha" operator="arithmetic" k2="-1" k3="1"/>
<feColorMatrix type="matrix" values="0 0 0 0 0.952941 0 0 0 0 0.239216 0 0 0 0 0.14902 0 0 0 0.24 0"/>
<feBlend mode="normal" in2="shape" result="effect1_innerShadow_3918_1289"/>
</filter>
<linearGradient id="paint0_linear_3918_1289" x1="724.042" y1="284.737" x2="826.087" y2="-96.1" gradientUnits="userSpaceOnUse">
<stop stop-color="white"/>
<stop offset="1" stop-color="#B3D7F4"/>
</linearGradient>
<linearGradient id="paint1_linear_3918_1289" x1="54.3082" y1="63.6277" x2="110.747" y2="496.106" gradientUnits="userSpaceOnUse">
<stop stop-color="white"/>
<stop offset="1" stop-color="#B3D7F4"/>
</linearGradient>
<linearGradient id="paint2_linear_3918_1289" x1="721.452" y1="682.883" x2="903.706" y2="1083.21" gradientUnits="userSpaceOnUse">
<stop stop-color="white"/>
<stop offset="1" stop-color="#B3D7F4"/>
</linearGradient>
<clipPath id="clip0_3918_1289">
<rect width="1024" height="1024" rx="200" fill="white"/>
</clipPath>
</defs>
</svg>
