<svg width="19" height="19" viewBox="0 0 19 19" fill="none" xmlns="http://www.w3.org/2000/svg">
<path d="M17.5173 15.0725L12.3792 3.0085C11.9691 2.04445 11.2359 1.23843 10.2913 0.794574C10.2262 0.76303 10.1599 0.734007 10.0925 0.707567C10.0553 0.691522 10.0174 0.677304 9.97885 0.664965C9.9417 0.64892 9.90378 0.634702 9.86524 0.622363C9.81282 0.604983 9.76014 0.588404 9.70721 0.572629C9.67904 0.564119 9.65063 0.556421 9.62201 0.549545C9.52258 0.522895 9.42315 0.503377 9.32195 0.487425C8.84259 0.409314 8.35081 0.434162 7.87678 0.551347C7.83508 0.561548 7.79364 0.5728 7.7525 0.585091H7.75074C7.69391 0.601081 7.63888 0.618835 7.58386 0.636589C7.55368 0.647249 7.52527 0.656107 7.49509 0.666767C6.55236 1.00233 5.82088 1.75866 5.46046 2.69073C4.57453 4.98633 1.5137 12.9118 0.592248 15.298C0.306419 16.0365 0.434226 16.8923 0.981073 17.4622C1.38056 17.8794 1.95045 18.1191 2.68546 18.1848C2.76538 18.1919 2.84701 18.1954 2.92693 18.1936C5.06274 18.1457 5.84039 16.8692 5.91317 14.9535L11.9922 14.8789L12.784 16.6117C13.8431 18.9345 18.4282 18.6966 17.5173 15.0725ZM8.27979 10.7653L9.0148 8.67741L9.86167 10.7653H8.27979Z" fill="#04163C"/>
<path d="M9.01431 8.67773L9.86117 10.7656H8.2793L9.01431 8.67773Z" fill="white"/>
<path d="M18.0332 15.3511L17.8227 14.6574L12.7873 2.83471C12.292 1.6718 11.3723 0.746825 10.2644 0.299408C10.1806 0.263778 10.0953 0.231793 10.0088 0.203543C9.20271 -0.0716257 8.29196 -0.0680975 7.4433 0.215967C7.41135 0.226627 7.37937 0.237287 7.34743 0.249711C6.30171 0.619018 5.4637 1.45166 5.0465 2.53113L0.176557 15.1383C-0.178524 16.0598 0.0114405 17.0931 0.661247 17.7695C1.13351 18.2613 1.80107 18.5507 2.64437 18.627C2.72072 18.6341 2.79706 18.6377 2.87698 18.6377H2.93733C4.98438 18.5915 6.12244 17.4997 6.32836 15.3922L11.7079 15.3265L12.379 16.7966C12.6346 17.3523 13.0607 17.8139 13.5809 18.0945C14.2342 18.4478 14.9693 18.5791 15.7647 18.485C16.3026 18.4194 16.7944 18.2223 17.1885 17.9133C18.147 17.1604 18.1875 16.1915 18.0332 15.3511ZM16.64 17.2156C16.3754 17.4233 16.0363 17.5582 15.6599 17.6026C15.383 17.6345 15.1237 17.6345 14.8752 17.5973H14.8734C14.5663 17.5564 14.2769 17.4606 14.0035 17.3132C13.6519 17.1232 13.3608 16.809 13.1868 16.4273L12.395 14.6945C12.3222 14.5347 12.1606 14.4352 11.9866 14.4352L5.90759 14.5098C5.66969 14.5134 5.47793 14.6998 5.46907 14.9377C5.39805 16.8445 4.60978 17.7109 2.91601 17.75C2.85209 17.7517 2.7864 17.7482 2.72425 17.7429C2.09219 17.686 1.62526 17.4925 1.30036 17.1552C0.888446 16.7256 0.773063 16.0598 1.00563 15.4579L5.87561 2.85246C6.19875 2.01269 6.84323 1.36998 7.64392 1.08592L7.72383 1.0575C7.97752 0.973246 8.24036 0.919603 8.50678 0.897716C8.92402 0.863972 9.33945 0.911904 9.72118 1.04331C9.7922 1.06816 9.86322 1.09301 9.93247 1.12142C10.8237 1.48184 11.5658 2.23284 11.9707 3.1827L17.0945 15.2147C17.3377 16.2054 17.2081 16.7682 16.64 17.2156Z" fill="#EFF9FF"/>
<path d="M10.9302 11.0423L9.39798 7.25713C9.32873 7.08669 9.15828 6.97483 8.97541 6.98016C8.88538 6.98261 8.7982 7.01224 8.72531 7.06515C8.65243 7.11807 8.59727 7.1918 8.56707 7.27665L7.23371 11.0601C7.18578 11.1968 7.2053 11.3477 7.28874 11.4648C7.37218 11.582 7.50712 11.653 7.65092 11.653H10.52C10.6673 11.653 10.8058 11.5785 10.8875 11.456C10.9692 11.3335 10.987 11.179 10.9302 11.0423ZM8.27944 10.7653L9.01445 8.67746L9.86132 10.7653H8.27944Z" fill="white"/>
</svg>
