<svg width="40" height="40" viewBox="0 0 40 40" fill="none" xmlns="http://www.w3.org/2000/svg">
    <path d="M13.333 4.08325H26.667C30.8525 4.08343 34.2498 7.48073 34.25 11.6663V28.3333C34.25 32.5189 30.8526 35.9161 26.667 35.9163H13.333C9.14737 35.9161 5.75 32.5189 5.75 28.3333V11.6663L5.75977 11.2766C5.96297 7.2719 9.27816 4.08342 13.333 4.08325ZM14.4697 27.6223C13.9605 27.4289 13.4146 27.4068 12.8975 27.5588L12.6719 27.637L12.6611 27.6409C12.4529 27.7277 12.2493 27.8436 12.0645 27.9924L11.8867 28.1526C11.435 28.6043 11.167 29.2265 11.167 29.8665C11.167 30.4444 11.3741 30.9792 11.7266 31.4045L11.8867 31.5803C12.3491 32.0426 12.9584 32.2833 13.5996 32.2834C14.1499 32.2834 14.6851 32.0971 15.1182 31.7424L15.2969 31.5803C15.7457 31.1315 16.0166 30.527 16.0166 29.8665C16.0166 29.3067 15.8117 28.7607 15.458 28.3303L15.2969 28.1526C15.2512 28.1069 15.1184 27.9721 14.9365 27.8625C14.784 27.7503 14.6213 27.6715 14.4707 27.6213L14.4697 27.6223ZM21.9639 28.1526C21.3165 27.5053 20.3469 27.3054 19.502 27.5774L19.335 27.6379L19.3281 27.6409C19.1198 27.7277 18.9164 27.8436 18.7314 27.9924L18.5527 28.1526C18.4359 28.2694 18.3455 28.3848 18.2812 28.4651L18.2314 28.5266L18.1963 28.5979L18.1953 28.5989V28.5999H18.1943V28.6018H18.1934V28.6038L18.1924 28.6047V28.6057H18.1914V28.6077H18.1904V28.6096L18.1895 28.6106V28.6116H18.1885V28.6135H18.1875V28.6155L18.1865 28.6165V28.6174H18.1855V28.6194H18.1846V28.6213L18.1836 28.6223V28.6233H18.1826V28.6252H18.1816V28.6272L18.1807 28.6282V28.6292H18.1797V28.6311H18.1787V28.6331L18.1777 28.634V28.635H18.1768V28.637H18.1758V28.6389L18.1748 28.6399V28.6409H18.1738V28.6428H18.1729V28.6448L18.1719 28.6458V28.6467H18.1709V28.6487H18.1699V28.6506L18.1689 28.6516V28.6526H18.168V28.6545H18.167V28.6565L18.166 28.6575V28.6584H18.165V28.6604H18.1641V28.6624L18.1631 28.6633V28.6643H18.1621V28.6663H18.1611V28.6682L18.1602 28.6692V28.6702H18.1592V28.6721H18.1582V28.6741L18.1572 28.675V28.676H18.1562V28.678H18.1553V28.6799L18.1543 28.6809V28.6819H18.1533V28.6838H18.1523V28.6858L18.1514 28.6868V28.6877H18.1504V28.6897H18.1494V28.6917L18.1484 28.6926V28.6936H18.1475V28.6956H18.1465V28.6975L18.1455 28.6985V28.6995H18.1445V28.7014H18.1436V28.7034L18.1426 28.7043V28.7053H18.1416V28.7073H18.1406V28.7092L18.1396 28.7102V28.7112H18.1387V28.7131H18.1377V28.7151L18.1367 28.7161V28.717H18.1357V28.719H18.1348V28.7209L18.1338 28.7219V28.7229H18.1328V28.7249H18.1318V28.7268L18.1309 28.7278V28.7288H18.1299V28.7307H18.1289V28.7327L18.1279 28.7336V28.7346H18.127V28.7366H18.126V28.7385L18.125 28.7395V28.7405H18.124V28.7424H18.123V28.7444L18.1221 28.7454V28.7463H18.1211V28.7483H18.1201V28.7502L18.1191 28.7512V28.7522H18.1182V28.7542H18.1172V28.7561L18.1162 28.7571V28.7581H18.1152V28.76H18.1143V28.762L18.1133 28.7629V28.7639H18.1123V28.7659H18.1113V28.7678L18.1104 28.7688V28.7698H18.1094V28.7717H18.1084V28.7737L18.1074 28.7747V28.7756H18.1064V28.7776H18.1055V28.7795L18.1045 28.7805V28.7815H18.1035V28.7834H18.1025V28.7854L18.1016 28.7864V28.7874H18.1006V28.7893H18.0996V28.7913L18.0986 28.7922V28.7932H18.0977V28.7952H18.0967V28.7971L18.0957 28.7981V28.7991H18.0947V28.801H18.0938V28.803L18.0928 28.804V28.8049H18.0918V28.8069H18.0908V28.8088L18.0898 28.8098V28.8108H18.0889V28.8127H18.0879V28.8147L18.0869 28.8157V28.8167H18.0859V28.8186H18.085V28.8206L18.084 28.8215V28.8225H18.083V28.8245H18.082V28.8264L18.0811 28.8274V28.8284H18.0801V28.8303H18.0791V28.8323L18.0781 28.8333V28.8342H18.0771V28.8362H18.0762V28.8381L18.0752 28.8391V28.8401H18.0742V28.842H18.0732V28.844L18.0723 28.845V28.8459H18.0713V28.8479H18.0703V28.8499L18.0693 28.8508V28.8518H18.0684V28.8538H18.0674V28.8557L18.0664 28.8567V28.8577H18.0654V28.8596H18.0645V28.8616L18.0635 28.8625V28.8635H18.0625V28.8655H18.0615V28.8674L18.0605 28.8684V28.8694H18.0596V28.8713H18.0586V28.8733L18.0576 28.8743V28.8752H18.0566V28.8772H18.0557V28.8792L18.0547 28.8801V28.8811H18.0537V28.8831H18.0527V28.885L18.0518 28.886V28.887H18.0508V28.8889H18.0498V28.8909L18.0488 28.8918V28.8928H18.0479V28.8948H18.0469V28.8967L18.0459 28.8977L18.0225 28.9456L18.0049 28.9963C17.9716 29.0962 17.9386 29.1962 17.9053 29.2961L17.8838 29.3606L17.874 29.427C17.8605 29.5217 17.833 29.6839 17.833 29.8665C17.833 30.4445 18.041 30.9792 18.3936 31.4045L18.5527 31.5803C19.0125 32.04 19.6212 32.2834 20.25 32.2834C20.5075 32.2834 20.7487 32.2413 20.9717 32.1711L21.1885 32.092C21.3968 32.0052 21.6002 31.8893 21.7852 31.7405L21.9639 31.5803C22.4263 31.1178 22.667 30.5079 22.667 29.8665C22.667 29.2457 22.429 28.6177 21.9639 28.1526ZM27.6826 27.5784C26.8969 27.3257 25.9811 27.4764 25.3428 28.0364L25.2197 28.1526C24.7546 28.6177 24.5166 29.2457 24.5166 29.8665C24.5166 30.5079 24.7572 31.1178 25.2197 31.5803C25.391 31.7516 25.5854 31.8886 25.7891 31.9954L25.9951 32.092C26.2718 32.2073 26.5866 32.2834 26.917 32.2834C27.5582 32.2834 28.1675 32.0426 28.6299 31.5803C29.0924 31.1178 29.333 30.5079 29.333 29.8665C29.333 29.3231 29.1513 28.7745 28.7939 28.3342L28.6299 28.1526C28.4588 27.9816 28.265 27.8442 28.0615 27.7375L27.8555 27.6409L27.8486 27.6379L27.6826 27.5784ZM14.0391 20.8274C13.306 20.6802 12.5381 20.9064 11.9941 21.385L11.8867 21.4866C11.7156 21.6577 11.5704 21.8424 11.4551 22.0637L11.3574 22.2786C11.2423 22.555 11.1671 22.8694 11.167 23.1995C11.167 23.7776 11.3739 24.3131 11.7266 24.7385L11.8867 24.9133C12.1149 25.1415 12.3833 25.3103 12.6611 25.426C12.9417 25.5429 13.2564 25.6164 13.5996 25.6165C14.2284 25.6165 14.8372 25.3731 15.2969 24.9133C15.7593 24.4508 16 23.8409 16 23.1995C16 22.914 15.9551 22.6028 15.8311 22.2971H15.833C15.6986 21.948 15.4888 21.6978 15.3242 21.5149L15.3105 21.5002L15.2969 21.4866L15.1396 21.3391C15.0833 21.2916 15.0139 21.2421 14.9365 21.1956C14.8003 21.0952 14.6554 21.0229 14.5186 20.9729C14.3531 20.8971 14.1827 20.8502 14.04 20.8264L14.0391 20.8274ZM21.7852 21.3264C20.9194 20.6302 19.5972 20.6302 18.7314 21.3264L18.5527 21.4866C18.1013 21.9382 17.8331 22.5598 17.833 23.1995C17.833 23.8599 18.1041 24.4645 18.5527 24.9133C19.0125 25.3731 19.6212 25.6165 20.25 25.6165C20.8112 25.6165 21.3479 25.4322 21.7832 25.0764L21.9639 24.9133C22.4262 24.4509 22.667 23.8408 22.667 23.1995C22.6669 22.9141 22.622 22.6027 22.498 22.2971H22.5C22.3657 21.948 22.1558 21.6978 21.9912 21.5149L21.9775 21.5002L21.9639 21.4866L21.7852 21.3264ZM28.6299 21.4866C27.7203 20.5771 26.1293 20.577 25.2197 21.4866C24.7682 21.9382 24.5001 22.5597 24.5 23.1995C24.5 23.7775 24.707 24.3131 25.0596 24.7385L25.2197 24.9133C25.6794 25.3731 26.2882 25.6165 26.917 25.6165C27.4782 25.6164 28.015 25.4323 28.4502 25.0764L28.6299 24.9133C28.8107 24.7325 28.9518 24.5373 29.0605 24.3313L29.1592 24.1213C29.2744 23.8447 29.3496 23.5297 29.3496 23.1995C29.3495 22.5596 29.0815 21.9382 28.6299 21.4866ZM15 8.75024C12.8499 8.75024 11.1163 10.5049 11.1162 12.6331V14.3C11.1163 16.4501 12.8718 18.1829 15 18.1829H25C27.1501 18.1829 28.8837 16.4283 28.8838 14.3V12.6331C28.8837 10.483 27.1282 8.75024 25 8.75024H15Z" fill="#2393FF" stroke="#2393FF" stroke-width="1.5"/>
    </svg>
    