<svg width="30" height="30" viewBox="0 0 30 30" fill="none" xmlns="http://www.w3.org/2000/svg">
<path d="M15 3.5C21.3352 3.5 26.5 8.66478 26.5 15C26.5 21.3352 21.3352 26.5 15 26.5C8.66478 26.5 3.5 21.3352 3.5 15C3.5 8.66478 8.66478 3.5 15 3.5ZM19.7607 9.96094C19.0525 9.38407 18.0227 9.38414 17.3145 9.96094L17.168 10.0928L15 12.2607L12.832 10.0928L12.6855 9.96094C11.9773 9.38414 10.9475 9.38407 10.2393 9.96094L10.0928 10.0928C9.38675 10.7988 9.34304 11.9268 9.96094 12.6855L10.0928 12.832L12.2607 15L10.0928 17.168C9.3868 17.874 9.34297 19.0021 9.96094 19.7607L10.0928 19.9072C10.4777 20.2921 10.9745 20.4746 11.4629 20.4746C11.8901 20.4745 12.3232 20.3347 12.6826 20.042L12.832 19.9072L15 17.7393L17.168 19.9072C17.5528 20.292 18.0489 20.4745 18.5371 20.4746C18.9645 20.4746 19.3983 20.3349 19.7578 20.042L19.9072 19.9072C20.6133 19.2012 20.657 18.0732 20.0391 17.3145L19.9072 17.168L17.7393 15L19.9072 12.832C20.6132 12.126 20.657 10.9979 20.0391 10.2393L19.9072 10.0928L19.7607 9.96094Z" fill="#99A5AA" stroke="#99A5AA" stroke-width="2"/>
</svg>
