<svg width="68" height="68" viewBox="0 0 68 68" fill="none" xmlns="http://www.w3.org/2000/svg">
    <path d="M30.1826 4.78271H37.5869C40.6337 4.78271 42.0282 5.66759 42.7598 6.58643C43.4606 7.46677 43.7253 8.56796 43.9277 9.73193L44.0117 10.2339L44.0137 10.2417L44.6172 13.811V14.9175L45.7979 14.9829C49.7903 15.2047 53.7593 15.4911 57.7236 15.8608L59.4219 16.0249H59.4268C59.9132 16.0712 60.2745 16.4968 60.249 16.9868C60.1944 17.4374 59.8092 17.77 59.376 17.77H59.2139C44.6777 16.3188 30.1558 15.74 15.7168 17.0493L14.3184 17.1821L8.55762 17.7466C8.08523 17.7916 7.69926 17.4883 7.61523 17.063L7.60254 16.9761C7.55971 16.5344 7.85999 16.1269 8.30762 16.0386L8.39941 16.0249H8.40234L14.168 15.4595L14.167 15.4585C16.7716 15.2065 19.3796 15.0394 22.0107 14.8696L23.0029 14.8052L23.1641 13.8237L23.7578 10.2065L23.7568 10.2056C23.9911 8.7856 24.2308 7.50675 25.0244 6.52881C25.7493 5.63575 27.1336 4.78272 30.1826 4.78271Z" fill="#2393FF" stroke="#2393FF" stroke-width="2.5"/>
    <path d="M16.0518 22.6523H51.7734C52.5251 22.6523 53.259 22.961 53.7959 23.5156C54.3101 24.0761 54.6013 24.837 54.5576 25.6436L52.8057 54.6025C52.6471 56.8082 52.468 58.9955 51.2461 60.668C50.0716 62.2753 47.7881 63.5723 42.9844 63.5723H24.8408C20.0387 63.5722 17.7551 62.2693 16.5801 60.6582C15.5102 59.1912 15.2393 57.3326 15.082 55.4229L15.0195 54.6025L13.2676 25.6182H13.2686C13.2297 24.9379 13.446 24.2673 13.8486 23.7324L14.0322 23.5127C14.5311 22.9705 15.2869 22.6524 16.0518 22.6523ZM29.1934 45.1738C27.6205 45.1738 26.3232 46.471 26.3232 48.0439C26.3234 49.6167 27.6205 50.9131 29.1934 50.9131H38.6045C40.1771 50.9129 41.4735 49.6166 41.4736 48.0439C41.4736 46.4712 40.1772 45.174 38.6045 45.1738H29.1934ZM26.8477 33.8701C25.2748 33.8701 23.9785 35.1664 23.9785 36.7393C23.9785 38.3122 25.2747 39.6084 26.8477 39.6084H40.9785C42.5512 39.6081 43.8477 38.312 43.8477 36.7393C43.8476 35.1665 42.5512 33.8704 40.9785 33.8701H26.8477Z" fill="#2393FF" stroke="#2393FF" stroke-width="1.5"/>
    </svg>
    