<svg width="40" height="40" viewBox="0 0 40 40" fill="none" xmlns="http://www.w3.org/2000/svg">
    <path d="M11.6665 6.58325H28.3335C30.7184 6.58325 32.5914 7.17934 33.8647 8.36157C35.128 9.53458 35.9164 11.3927 35.9165 14.1663V25.8333C35.9165 28.607 35.128 30.4649 33.8647 31.6379C32.5914 32.8203 30.7185 33.4163 28.3335 33.4163H11.6665C9.28163 33.4162 7.40855 32.8203 6.13525 31.6379C4.87201 30.4649 4.0835 28.6069 4.0835 25.8333V14.1663L4.09229 13.6575C4.18351 11.1634 4.95088 9.46135 6.13525 8.36157C7.32909 7.25306 9.05029 6.65987 11.2261 6.59009L11.6665 6.58325ZM29.8804 13.7434C29.1967 12.8656 27.9278 12.7486 27.0825 13.4309L21.8657 17.5969L21.8638 17.5979C21.3874 17.9802 20.7085 18.1956 19.9917 18.1956C19.3644 18.1955 18.766 18.031 18.3071 17.7336L18.1196 17.5979L18.1187 17.5969L12.9019 13.4309C12.0311 12.7276 10.7811 12.9064 10.1011 13.7434L10.0972 13.7493L10.0923 13.7551C9.46817 14.5543 9.54412 15.7156 10.2593 16.429L10.4106 16.5657L10.4155 16.5696L15.6323 20.7356C16.8678 21.7404 18.4566 22.217 20.0005 22.217C21.5496 22.217 23.1202 21.7377 24.3687 20.7356L29.5845 16.5696L29.5894 16.5657C30.4372 15.8768 30.5742 14.6189 29.897 13.7639H29.8979C29.8962 13.7616 29.8939 13.7594 29.8921 13.7571C29.8886 13.7527 29.8858 13.7477 29.8823 13.7434H29.8804Z" fill="#2393FF" stroke="#2393FF" stroke-width="1.5"/>
    </svg>
    