<svg width="55" height="54" viewBox="0 0 55 54" fill="none" xmlns="http://www.w3.org/2000/svg">
<path d="M29.5248 37.6159C30.5415 37.6159 31.3657 36.7917 31.3657 35.775C31.3657 34.7583 30.5415 33.9341 29.5248 33.9341C28.5081 33.9341 27.6839 34.7583 27.6839 35.775C27.6839 36.7917 28.5081 37.6159 29.5248 37.6159Z" fill="#00504A"/>
<path d="M35.6919 47.3726H12.7726C10.7424 47.3726 9.09078 45.7209 9.09078 43.6908V28.5953C9.09078 26.5652 10.7424 24.9135 12.7726 24.9135H39.2817C39.7009 24.9135 40.0334 24.9505 40.2985 25.0265C41.2759 25.3065 42.2952 24.7411 42.5753 23.7638C42.8553 22.7864 42.2899 21.7671 41.3126 21.487C40.7131 21.3153 40.0488 21.2318 39.2817 21.2318H37.0692V14.7395C37.0692 8.77758 32.1142 3.92725 26.0237 3.92725C19.9333 3.92725 14.9783 8.77758 14.9783 14.7395V21.2318H12.7726C8.71229 21.2318 5.40897 24.5351 5.40897 28.5954V43.6909C5.40897 47.7512 8.71229 51.0545 12.7726 51.0545H35.6919C36.7087 51.0545 37.5328 50.2303 37.5328 49.2136C37.5328 48.1969 36.7087 47.3727 35.6919 47.3726ZM18.6601 14.7395C18.6601 10.8077 21.9634 7.60906 26.0237 7.60906C30.0841 7.60906 33.3874 10.8077 33.3874 14.7395V21.2318H18.6601V14.7395Z" fill="#00504A"/>
<path d="M22.6214 37.6159C23.6381 37.6159 24.4623 36.7917 24.4623 35.775C24.4623 34.7583 23.6381 33.9341 22.6214 33.9341C21.6047 33.9341 20.7805 34.7583 20.7805 35.775C20.7805 36.7917 21.6047 37.6159 22.6214 37.6159Z" fill="#00504A"/>
<path d="M49.6007 34.4136C49.5604 30.8433 46.6433 27.9511 43.0636 27.9511C39.4589 27.9511 36.526 30.8839 36.526 34.4886C36.526 35.5054 37.3502 36.3295 38.3669 36.3295C39.3837 36.3295 40.2078 35.5054 40.2078 34.4886C40.2078 32.914 41.4889 31.6329 43.0637 31.6329C44.6384 31.6329 45.9194 32.914 45.9194 34.4886C45.9194 34.5054 45.9195 34.5221 45.92 34.5386C45.9111 35.0906 45.7423 35.6281 45.4341 36.0861C45.1259 36.5441 44.6916 36.9029 44.1837 37.1191C42.385 37.8872 41.2227 39.6612 41.2227 41.6386V43.2307C41.2227 44.2474 42.0469 45.0716 43.0637 45.0716C44.0804 45.0716 44.9046 44.2474 44.9046 43.2307V41.6386C44.9046 41.1381 45.1892 40.6932 45.6294 40.5053C46.8091 40.003 47.8149 39.1646 48.5213 38.0946C49.2278 37.0247 49.6037 35.7704 49.6023 34.4883C49.6023 34.4632 49.6017 34.4384 49.6007 34.4136Z" fill="#00504A"/>
<path d="M43.0555 51.0545C44.0722 51.0545 44.8964 50.2303 44.8964 49.2136C44.8964 48.1969 44.0722 47.3727 43.0555 47.3727C42.0388 47.3727 41.2146 48.1969 41.2146 49.2136C41.2146 50.2303 42.0388 51.0545 43.0555 51.0545Z" fill="#00504A"/>
<path d="M15.718 37.6159C16.7347 37.6159 17.5589 36.7917 17.5589 35.775C17.5589 34.7583 16.7347 33.9341 15.718 33.9341C14.7012 33.9341 13.877 34.7583 13.877 35.775C13.877 36.7917 14.7012 37.6159 15.718 37.6159Z" fill="#00504A"/>
</svg>
