<svg width="40" height="41" viewBox="0 0 40 41" fill="none" xmlns="http://www.w3.org/2000/svg">
    <path d="M20 3.33325C24.8712 3.33325 27.419 4.87244 28.793 6.82739C30.205 8.83674 30.5 11.4486 30.5 13.8333V16.4993C30.1796 16.4726 29.8462 16.4517 29.5 16.4377V13.8333C29.5 11.1746 29.1334 8.75417 27.6758 7.00903C26.1922 5.23312 23.7365 4.33325 20 4.33325C16.2635 4.33325 13.8078 5.23312 12.3242 7.00903C10.8666 8.75417 10.5 11.1746 10.5 13.8333V16.4377C10.1538 16.4517 9.8204 16.4726 9.5 16.4993V13.8333C9.5 11.4486 9.79501 8.83674 11.207 6.82739C12.581 4.87244 15.1288 3.33325 20 3.33325Z" fill="#2393FF" stroke="#2393FF" stroke-width="1.5"/>
    <path d="M31.2502 17.3334C30.5168 17.2334 29.6835 17.1834 28.7502 17.1667H11.2502C10.3168 17.1834 9.4835 17.2334 8.75016 17.3334C4.50016 17.8501 3.3335 19.9334 3.3335 25.5001V28.8334C3.3335 35.5001 5.00016 37.1667 11.6668 37.1667H28.3335C35.0002 37.1667 36.6668 35.5001 36.6668 28.8334V25.5001C36.6668 19.9334 35.5002 17.8501 31.2502 17.3334ZM14.5168 28.3501C14.2002 28.6501 13.7668 28.8334 13.3335 28.8334C13.1168 28.8334 12.9002 28.7834 12.7002 28.7001C12.4835 28.6167 12.3168 28.5001 12.1502 28.3501C11.8502 28.0334 11.6668 27.6001 11.6668 27.1667C11.6668 26.9501 11.7168 26.7334 11.8002 26.5334C11.8835 26.3334 12.0002 26.1501 12.1502 25.9834C12.3168 25.8334 12.4835 25.7167 12.7002 25.6334C13.3168 25.3667 14.0502 25.5167 14.5168 25.9834C14.6668 26.1501 14.7835 26.3334 14.8668 26.5334C14.9502 26.7334 15.0002 26.9501 15.0002 27.1667C15.0002 27.6001 14.8168 28.0334 14.5168 28.3501ZM21.5335 27.8001C21.4502 28.0001 21.3335 28.1834 21.1835 28.3501C20.8668 28.6501 20.4335 28.8334 20.0002 28.8334C19.5502 28.8334 19.1335 28.6501 18.8168 28.3501C18.6668 28.1834 18.5502 28.0001 18.4668 27.8001C18.3835 27.6001 18.3335 27.3834 18.3335 27.1667C18.3335 26.7167 18.5168 26.3001 18.8168 25.9834C19.4335 25.3667 20.5502 25.3667 21.1835 25.9834C21.4835 26.3001 21.6668 26.7167 21.6668 27.1667C21.6668 27.3834 21.6168 27.6001 21.5335 27.8001ZM27.8502 28.3501C27.5335 28.6501 27.1002 28.8334 26.6668 28.8334C26.2335 28.8334 25.8002 28.6501 25.4835 28.3501C25.1835 28.0334 25.0002 27.6167 25.0002 27.1667C25.0002 26.7167 25.1835 26.3001 25.4835 25.9834C26.1168 25.3667 27.2335 25.3667 27.8502 25.9834C27.9168 26.0667 27.9835 26.1501 28.0502 26.2501C28.1168 26.3334 28.1668 26.4334 28.2002 26.5334C28.2502 26.6334 28.2835 26.7334 28.3002 26.8334C28.3168 26.9501 28.3335 27.0667 28.3335 27.1667C28.3335 27.6001 28.1502 28.0334 27.8502 28.3501Z" fill="#2393FF"/>
    </svg>
    