<svg width="68" height="68" viewBox="0 0 68 68" fill="none" xmlns="http://www.w3.org/2000/svg">
    <path d="M40.1309 6.90234H47.4795C51.7376 6.90244 55.069 8.22795 57.3301 10.4922C59.5202 12.6854 60.8261 15.8796 60.8936 19.9473L60.8965 20.3438V47.4785C60.8965 51.7366 59.5707 55.069 57.3057 57.334C55.0407 59.5988 51.7089 60.9237 47.4512 60.9238H40.1309C35.8731 60.9238 32.5413 59.5988 30.2764 57.334C28.0113 55.069 26.6856 51.7366 26.6855 47.4785V37.2832H43.0986C44.9477 37.2832 46.4678 35.7621 46.4678 33.9131C46.4677 32.0641 44.9476 30.544 43.0986 30.5439H26.6855V20.3477C26.6856 16.0897 28.0114 12.7582 30.2764 10.4932C32.5414 8.22818 35.8729 6.90241 40.1309 6.90234Z" fill="#2393FF" stroke="#2393FF" stroke-width="2.5"/>
    <path d="M16.2725 23.4775C16.7992 22.9511 17.6814 22.9509 18.208 23.4775L18.2168 23.4873L18.2266 23.4961C18.4739 23.7271 18.6093 24.0805 18.6094 24.4453C18.6094 24.7506 18.5128 25.0514 18.3037 25.3066L18.208 25.4131L12.3574 31.2627L11.0771 32.543H24.6855V35.2822H11.0771L18.208 42.4131C18.7015 42.9069 18.7319 43.7125 18.2998 44.2451L18.208 44.3477C17.7142 44.8415 16.9078 44.8726 16.375 44.4404L16.2725 44.3477L6.80469 34.8809C6.31084 34.387 6.28058 33.5806 6.71289 33.0479L6.80469 32.9453L16.2725 23.4775Z" fill="#2393FF" stroke="#2393FF" stroke-width="1.5"/>
    </svg>
    