<svg width="54" height="54" viewBox="0 0 54 54" fill="none" xmlns="http://www.w3.org/2000/svg">
<mask id="mask0_521_11979" style="mask-type:luminance" maskUnits="userSpaceOnUse" x="4" y="4" width="47" height="47">
<path d="M48.4875 48.4875V6.5125H6.5125V48.4875H48.4875Z" fill="white" stroke="white" stroke-width="4.025"/>
</mask>
<g mask="url(#mask0_521_11979)">
<path d="M20.4949 31.0938H15.1017C10.239 31.0938 6.297 35.0357 6.297 39.8984C6.297 44.7611 10.239 48.7031 15.1017 48.7031H39.8986C44.7613 48.7031 48.7032 44.7611 48.7032 39.8984C48.7032 35.0357 44.7613 31.0938 39.8986 31.0938H33.7861" stroke="#00504A" stroke-width="4.025" stroke-miterlimit="10" stroke-linecap="round" stroke-linejoin="round"/>
<path d="M39.629 39.6648C39.5 39.6648 39.3954 39.7694 39.3954 39.8984C39.3954 40.0274 39.5 40.132 39.629 40.132C39.758 40.132 39.8626 40.0274 39.8626 39.8984C39.8626 39.7694 39.758 39.6648 39.629 39.6648ZM31.5431 39.6648C31.4141 39.6648 31.3095 39.7694 31.3095 39.8984C31.3095 40.0274 31.4141 40.132 31.5431 40.132C31.6721 40.132 31.7767 40.0274 31.7767 39.8984C31.7767 39.7694 31.6721 39.6648 31.5431 39.6648ZM15.3712 39.6648C15.2422 39.6648 15.1376 39.7694 15.1376 39.8984C15.1376 40.0274 15.2422 40.132 15.3712 40.132C15.5002 40.132 15.6048 40.0274 15.6048 39.8984C15.6048 39.7694 15.5002 39.6648 15.3712 39.6648ZM23.4572 40.132C23.5862 40.132 23.6907 40.0274 23.6907 39.8984C23.6907 39.7694 23.5862 39.6648 23.4572 39.6648C23.3282 39.6648 23.2236 39.7694 23.2236 39.8984C23.2236 40.0274 23.3282 40.132 23.4572 40.132Z" fill="#00504A" stroke="#00504A" stroke-width="4.025"/>
<path d="M27.1407 27.6437C27.2697 27.6437 27.3743 27.5391 27.3743 27.4101C27.3743 27.2811 27.2697 27.1765 27.1407 27.1765C27.0117 27.1765 26.9072 27.2811 26.9072 27.4101C26.9072 27.5391 27.0117 27.6437 27.1407 27.6437Z" fill="#00504A" stroke="#00504A" stroke-width="4.025"/>
<path d="M27.1443 21.5398V21.4508C27.1443 18.9858 28.3997 16.6624 30.5175 15.3955C31.8976 14.5698 32.7111 13.2266 32.7111 11.7101C32.7111 9.19976 30.6936 7.16479 28.1795 7.16479C26.2423 7.16479 24.0861 8.15308 22.2892 10.2195" stroke="#00504A" stroke-width="4.025" stroke-miterlimit="10" stroke-linecap="round" stroke-linejoin="round"/>
</g>
</svg>
