<svg width="25" height="24" viewBox="0 0 25 24" fill="none" xmlns="http://www.w3.org/2000/svg">
    <path d="M12.4697 2C6.94973 2 2.46973 6.48 2.46973 12C2.46973 17.52 6.94973 22 12.4697 22C17.9897 22 22.4697 17.52 22.4697 12C22.4697 6.48 17.9997 2 12.4697 2ZM15.4697 14.23L12.5697 15.9C12.2097 16.11 11.8097 16.21 11.4197 16.21C11.0197 16.21 10.6297 16.11 10.2697 15.9C9.54973 15.48 9.11973 14.74 9.11973 13.9V10.55C9.11973 9.72 9.54973 8.97 10.2697 8.55C10.9897 8.13 11.8497 8.13 12.5797 8.55L15.4797 10.22C16.1997 10.64 16.6297 11.38 16.6297 12.22C16.6297 13.06 16.1997 13.81 15.4697 14.23Z" fill="#2393FF"/>
    </svg>
    