<svg width="55" height="54" viewBox="0 0 55 54" fill="none" xmlns="http://www.w3.org/2000/svg">
<path d="M35.5076 37.742C36.5863 37.742 37.4607 36.8675 37.4607 35.7888C37.4607 34.7101 36.5863 33.8357 35.5076 33.8357C34.4289 33.8357 33.5544 34.7101 33.5544 35.7888C33.5544 36.8675 34.4289 37.742 35.5076 37.742Z" fill="#00504A"/>
<path d="M25.7422 48.0936H10.3125C8.15859 48.0936 6.40625 46.3413 6.40625 44.1874V28.1718C6.40625 26.0178 8.15859 24.2655 10.3125 24.2655H38.4375C40.5914 24.2655 42.3438 26.0178 42.3438 28.1718V32.078C42.3438 33.1567 43.2182 34.0311 44.2969 34.0311C45.3756 34.0311 46.25 33.1567 46.25 32.078V28.1718C46.25 23.8639 42.7453 20.3593 38.4375 20.3593H36.0901V13.4712C36.0901 7.14587 30.8331 1.99988 24.3714 1.99988C17.9097 1.99988 12.6526 7.14587 12.6526 13.4712V20.3593H10.3125C6.00469 20.3593 2.5 23.8639 2.5 28.1718V44.1874C2.5 48.4952 6.00469 51.9999 10.3125 51.9999H25.7422C26.8209 51.9999 27.6953 51.1255 27.6953 50.0468C27.6953 48.968 26.8209 48.0936 25.7422 48.0936ZM16.5589 13.4712C16.5589 9.29978 20.0636 5.90613 24.3714 5.90613C28.6792 5.90613 32.1839 9.29978 32.1839 13.4712V20.3593H16.5589V13.4712Z" fill="#00504A"/>
<path d="M51.6837 33.8101C50.8066 33.1821 49.5864 33.3841 48.9587 34.2613L39.3316 47.7086C39.0687 48.0135 38.7392 48.0793 38.5627 48.091C38.3816 48.1031 38.033 48.0801 37.7261 47.7921L31.5045 41.7207C30.7325 40.9672 29.4959 40.9825 28.7426 41.7544C27.9892 42.5264 28.0042 43.7629 28.7763 44.5163L35.0088 50.5985C35.0146 50.6041 35.0204 50.6098 35.0263 50.6154C35.9606 51.5049 37.2078 51.9997 38.491 51.9997C38.6012 51.9997 38.7118 51.9961 38.8223 51.9887C40.2202 51.8955 41.5254 51.2158 42.403 50.1238C42.4257 50.0954 42.4476 50.0666 42.4687 50.0371L52.1349 36.5351C52.7627 35.6581 52.5608 34.438 51.6837 33.8101Z" fill="#00504A"/>
<path d="M28.0857 37.742C29.1644 37.742 30.0388 36.8675 30.0388 35.7888C30.0388 34.7101 29.1644 33.8357 28.0857 33.8357C27.007 33.8357 26.1326 34.7101 26.1326 35.7888C26.1326 36.8675 27.007 37.742 28.0857 37.742Z" fill="#00504A"/>
<path d="M13.4373 37.742C14.5159 37.742 15.3904 36.8675 15.3904 35.7888C15.3904 34.7101 14.5159 33.8357 13.4373 33.8357C12.3586 33.8357 11.4841 34.7101 11.4841 35.7888C11.4841 36.8675 12.3586 37.742 13.4373 37.742Z" fill="#00504A"/>
<path d="M20.7615 37.742C21.8402 37.742 22.7146 36.8675 22.7146 35.7888C22.7146 34.7101 21.8402 33.8357 20.7615 33.8357C19.6828 33.8357 18.8083 34.7101 18.8083 35.7888C18.8083 36.8675 19.6828 37.742 20.7615 37.742Z" fill="#00504A"/>
</svg>
