<svg width="58" height="58" viewBox="0 0 58 58" fill="none" xmlns="http://www.w3.org/2000/svg">
    <path d="M28.9131 1.9021C43.7944 1.9021 55.9238 14.0315 55.9238 28.9128C55.9238 43.7942 43.7945 55.9236 28.9131 55.9236C14.0318 55.9235 1.90234 43.7942 1.90234 28.9128C1.90241 14.0316 14.0318 1.90217 28.9131 1.9021ZM43.3057 18.533C42.0387 17.2663 39.983 17.227 38.667 18.4148L38.542 18.533L24.8994 32.1746L19.2842 26.5593C18.0172 25.2924 15.9616 25.2532 14.6455 26.4412L14.5205 26.5593C13.2536 27.8263 13.2144 29.8819 14.4023 31.198L14.5205 31.323L22.5186 39.321C23.1459 39.9483 24 40.3083 24.9004 40.3083C25.7446 40.3083 26.5481 39.9919 27.1621 39.4353L27.2822 39.321L43.3057 23.2966L43.3135 23.2898L43.3203 23.282C44.6001 21.958 44.6215 19.8488 43.3057 18.533Z" fill="#2393FF" stroke="#2393FF" stroke-width="2.5"/>
    </svg>
    