<svg width="24" height="24" viewBox="0 0 24 24" fill="none" xmlns="http://www.w3.org/2000/svg">
    <path d="M20.5173 18.0725L15.3792 6.0085C14.9691 5.04445 14.2359 4.23843 13.2913 3.79457C13.2262 3.76303 13.1599 3.73401 13.0925 3.70757C13.0553 3.69152 13.0174 3.6773 12.9789 3.66497C12.9417 3.64892 12.9038 3.6347 12.8652 3.62236C12.8128 3.60498 12.7601 3.5884 12.7072 3.57263C12.679 3.56412 12.6506 3.55642 12.622 3.54955C12.5226 3.5229 12.4231 3.50338 12.322 3.48742C11.8426 3.40931 11.3508 3.43416 10.8768 3.55135C10.8351 3.56155 10.7936 3.5728 10.7525 3.58509H10.7507C10.6939 3.60108 10.6389 3.61883 10.5839 3.63659C10.5537 3.64725 10.5253 3.65611 10.4951 3.66677C9.55236 4.00233 8.82088 4.75866 8.46046 5.69073C7.57453 7.98633 4.5137 15.9118 3.59225 18.298C3.30642 19.0365 3.43423 19.8923 3.98107 20.4622C4.38056 20.8794 4.95045 21.1191 5.68546 21.1848C5.76538 21.1919 5.84701 21.1954 5.92693 21.1936C8.06274 21.1457 8.84039 19.8692 8.91317 17.9535L14.9922 17.8789L15.784 19.6117C16.8431 21.9345 21.4282 21.6966 20.5173 18.0725ZM11.2798 13.7653L12.0148 11.6774L12.8617 13.7653H11.2798Z" fill="#04163C"/>
    <path d="M12.0143 11.6777L12.8612 13.7656H11.2793L12.0143 11.6777Z" fill="white"/>
    <path d="M21.0332 18.3511L20.8227 17.6574L15.7873 5.83471C15.292 4.6718 14.3723 3.74683 13.2644 3.29941C13.1806 3.26378 13.0953 3.23179 13.0088 3.20354C12.2027 2.92837 11.292 2.9319 10.4433 3.21597C10.4114 3.22663 10.3794 3.23729 10.3474 3.24971C9.30171 3.61902 8.4637 4.45166 8.0465 5.53113L3.17656 18.1383C2.82148 19.0598 3.01144 20.0931 3.66125 20.7695C4.13351 21.2613 4.80107 21.5507 5.64437 21.627C5.72072 21.6341 5.79706 21.6377 5.87698 21.6377H5.93733C7.98438 21.5915 9.12244 20.4997 9.32836 18.3922L14.7079 18.3265L15.379 19.7966C15.6346 20.3523 16.0607 20.8139 16.5809 21.0945C17.2342 21.4478 17.9693 21.5791 18.7647 21.485C19.3026 21.4194 19.7944 21.2223 20.1885 20.9133C21.147 20.1604 21.1875 19.1915 21.0332 18.3511ZM19.64 20.2156C19.3754 20.4233 19.0363 20.5582 18.6599 20.6026C18.383 20.6345 18.1237 20.6345 17.8752 20.5973H17.8734C17.5663 20.5564 17.2769 20.4606 17.0035 20.3132C16.6519 20.1232 16.3608 19.809 16.1868 19.4273L15.395 17.6945C15.3222 17.5347 15.1606 17.4352 14.9866 17.4352L8.90759 17.5098C8.66969 17.5134 8.47793 17.6998 8.46907 17.9377C8.39805 19.8445 7.60978 20.7109 5.91601 20.75C5.85209 20.7517 5.7864 20.7482 5.72425 20.7429C5.09219 20.686 4.62526 20.4925 4.30036 20.1552C3.88845 19.7256 3.77306 19.0598 4.00563 18.4579L8.87561 5.85246C9.19875 5.01269 9.84323 4.36998 10.6439 4.08592L10.7238 4.0575C10.9775 3.97325 11.2404 3.9196 11.5068 3.89772C11.924 3.86397 12.3395 3.9119 12.7212 4.04331C12.7922 4.06816 12.8632 4.09301 12.9325 4.12142C13.8237 4.48184 14.5658 5.23284 14.9707 6.1827L20.0945 18.2147C20.3377 19.2054 20.2081 19.7682 19.64 20.2156Z" fill="#EFF9FF"/>
    <path d="M13.9302 14.0423L12.398 10.2571C12.3287 10.0867 12.1583 9.97483 11.9754 9.98016C11.8854 9.98261 11.7982 10.0122 11.7253 10.0652C11.6524 10.1181 11.5973 10.1918 11.5671 10.2767L10.2337 14.0601C10.1858 14.1968 10.2053 14.3477 10.2887 14.4648C10.3722 14.582 10.5071 14.653 10.6509 14.653H13.52C13.6673 14.653 13.8058 14.5785 13.8875 14.456C13.9692 14.3335 13.987 14.179 13.9302 14.0423ZM11.2794 13.7653L12.0145 11.6775L12.8613 13.7653H11.2794Z" fill="white"/>
    </svg>
    