<svg width="24" height="24" viewBox="0 0 24 24" fill="none" xmlns="http://www.w3.org/2000/svg">
    <path d="M10.7402 3.02539C11.5112 2.83399 12.3153 2.86178 13.0391 3.1084H13.04C13.1293 3.13753 13.2173 3.1703 13.3037 3.20703H13.3027C14.4364 3.66514 15.374 4.61054 15.8789 5.7959L20.915 17.6182L20.9189 17.6279H20.918L21.1289 18.3223L21.1318 18.333L21.1797 18.6602C21.216 18.9939 21.2116 19.3439 21.125 19.6895C21.0234 20.0944 20.8101 20.4891 20.4258 20.8428L20.25 20.9922C19.8915 21.2731 19.4569 21.4641 18.9824 21.5527L18.7764 21.584C18.0639 21.6683 17.3958 21.5769 16.7891 21.3086L16.5332 21.1826C15.9932 20.8914 15.5524 20.4132 15.2881 19.8389V19.8379L14.6436 18.4268L9.41602 18.4902C9.30159 19.5165 8.96484 20.3123 8.39258 20.8604C7.80349 21.4245 6.98022 21.7138 5.93945 21.7373H5.87695C5.794 21.7373 5.71422 21.7339 5.63477 21.7266V21.7256C4.88148 21.6573 4.25734 21.4228 3.7832 21.0215L3.58887 20.8389C2.91049 20.1326 2.71506 19.0576 3.08301 18.1025L7.95312 5.49512L8.03809 5.29102C8.48834 4.28491 9.30682 3.51113 10.3145 3.15527C10.3478 3.14243 10.3807 3.13125 10.4111 3.12109L10.7402 3.02539ZM11.5146 3.99707C11.2563 4.01832 11.0009 4.07063 10.7549 4.15234L10.6777 4.17969C9.9544 4.4363 9.36073 4.9981 9.03125 5.73828L8.96875 5.88867L4.09863 18.4941C3.87873 19.0635 3.99007 19.6872 4.37207 20.0859L4.49219 20.1982C4.78817 20.4457 5.19395 20.5951 5.7334 20.6436H5.73242C5.79257 20.6487 5.85445 20.652 5.91309 20.6504H5.91406L6.21387 20.6338C6.88881 20.5727 7.38281 20.355 7.72656 19.9766C8.12145 19.5418 8.33403 18.8763 8.36914 17.9336L8.38379 17.8281C8.44005 17.5891 8.65181 17.414 8.90625 17.4102L14.9854 17.335H14.9863L15.0654 17.3408C15.2462 17.3667 15.4079 17.4811 15.4863 17.6533L16.2773 19.3857L16.3447 19.5186C16.5129 19.821 16.7606 20.0688 17.0508 20.2256L17.251 20.3223C17.4522 20.409 17.6619 20.4674 17.8809 20.4971H17.8828L17.8896 20.498C18.128 20.5338 18.3785 20.5341 18.6484 20.5029L18.7812 20.4834C19.0875 20.4277 19.3606 20.3075 19.5781 20.1367L19.6738 20.0566C19.8859 19.8657 20.0155 19.6542 20.0742 19.3965C20.1421 19.0985 20.1165 18.7287 19.9971 18.2412L14.8789 6.22168C14.5083 5.35223 13.849 4.65599 13.0557 4.28418L12.8945 4.21387L12.6885 4.1377C12.4128 4.04281 12.1181 3.99256 11.8174 3.9873L11.5146 3.99707Z" fill="#3D4152" stroke="#3D4152" stroke-width="0.2"/>
    <path d="M13.9302 14.0423L12.398 10.2571C12.3287 10.0867 12.1583 9.97483 11.9754 9.98016C11.8854 9.98261 11.7982 10.0122 11.7253 10.0652C11.6524 10.1181 11.5973 10.1918 11.5671 10.2767L10.2337 14.0601C10.1858 14.1968 10.2053 14.3477 10.2887 14.4648C10.3722 14.582 10.5071 14.653 10.6509 14.653H13.52C13.6673 14.653 13.8058 14.5785 13.8875 14.456C13.9692 14.3335 13.987 14.179 13.9302 14.0423ZM11.2794 13.7653L12.0145 11.6775L12.8613 13.7653H11.2794Z" fill="#3D4152"/>
    </svg>
    